<svg xmlns="http://www.w3.org/2000/svg" style="display: none;">
<symbol id="add" fill="none" viewBox="0 0 18 18"><path stroke-linecap="round" stroke-linejoin="round" stroke-width="1.28" d="M6.667 9H9m0 0h2.333M9 9V6.667M9 9v2.333M16 2.467v13.066a.467.467 0 0 1-.467.467H2.467A.467.467 0 0 1 2 15.533V2.467C2 2.209 2.209 2 2.467 2h13.066c.258 0 .467.209.467.467Z" stroke="currentColor"/></symbol>
<symbol id="alignCenter" fill="none" viewBox="0 0 36 36"><path stroke-linecap="round" stroke-linejoin="round" stroke-width="1.89" d="M18.14 36V0" stroke="currentColor"/><path stroke-width="1.89" d="M28.3 25.2H8.7c-1.546 0-2.8-1.612-2.8-3.6v-7.2c0-1.988 1.253-3.6 2.8-3.6h19.6c1.546 0 2.8 1.612 2.8 3.6v7.2c0 1.988-1.254 3.6-2.8 3.6Z" fill="currentColor" stroke="currentColor"/></symbol>
<symbol id="alignLeft" fill="none" viewBox="0 0 36 36"><path stroke-linecap="round" stroke-linejoin="round" stroke-width="1.89" d="M1.8 36V0" stroke="currentColor"/><path stroke-width="1.89" d="M30.6 25.2h-18A3.6 3.6 0 0 1 9 21.6v-7.2a3.6 3.6 0 0 1 3.6-3.6h18a3.6 3.6 0 0 1 3.6 3.6v7.2a3.6 3.6 0 0 1-3.6 3.6Z" fill="currentColor" stroke="currentColor"/></symbol>
<symbol id="alignRight" fill="none" viewBox="0 0 36 36"><path stroke-linecap="round" stroke-linejoin="round" stroke-width="1.89" d="M34.2 36V0" stroke="currentColor"/><path stroke-width="1.89" d="M23.4 25.2h-18a3.6 3.6 0 0 1-3.6-3.6v-7.2a3.6 3.6 0 0 1 3.6-3.6h18a3.6 3.6 0 0 1 3.6 3.6v7.2a3.6 3.6 0 0 1-3.6 3.6Z" fill="currentColor" stroke="currentColor"/></symbol>
<symbol id="arrow" fill="none" viewBox="0 0 11 11"><path fill-rule="evenodd" d="M2.396 10.724a.556.556 0 0 1-.343-.514V1.321A.556.556 0 0 1 3.002.93l4.444 4.444a.556.556 0 0 1 0 .786l-4.444 4.444a.556.556 0 0 1-.606.12Z" clip-rule="evenodd" fill="currentColor"/></symbol>
<symbol id="back" fill="none" viewBox="0 0 8 14"><path stroke-linecap="round" stroke-linejoin="round" stroke-width="1.176" d="m7.313.625-6 6 6 6" stroke="currentColor"/></symbol>
<symbol id="block" fill="none" viewBox="0 0 38 38"><path stroke-linecap="round" stroke-linejoin="round" stroke-width="1.28" d="m.997 28 .022-.025M.997 37l.022-.025M9.997 37l.022-.025M18.997 37l.022-.025M27.997 37l.022-.025M36.997 37l.022-.025M36.997 28l.022-.025M.997 17V3a2 2 0 0 1 2-2h32a2 2 0 0 1 2 2v14a2 2 0 0 1-2 2h-32a2 2 0 0 1-2-2Z" stroke="currentColor"/></symbol>
<symbol id="block_full" fill="none" viewBox="0 0 38 38"><path stroke-linecap="round" stroke-linejoin="round" stroke-width="1.28" d="M33 1H5a4 4 0 0 0-4 4v28a4 4 0 0 0 4 4h28a4 4 0 0 0 4-4V5a4 4 0 0 0-4-4Z" stroke="currentColor"/></symbol>
<symbol id="block_three" fill="none" viewBox="0 0 39 38"><path stroke-width="1.5" d="M13.09 1H2.29a1.2 1.2 0 0 0-1.2 1.2v33.6a1.2 1.2 0 0 0 1.2 1.2h10.8m0-36v36m0-36h12m-12 36h12m0-36h10.8a1.2 1.2 0 0 1 1.2 1.2v33.6a1.2 1.2 0 0 1-1.2 1.2h-10.8m0-36v36" stroke="currentColor"/></symbol>
<symbol id="block_two" fill="none" viewBox="0 0 39 38"><path stroke-width="1.5" d="M19.09 1h16.8a1.2 1.2 0 0 1 1.2 1.2v33.6a1.2 1.2 0 0 1-1.2 1.2h-16.8m0-36H2.29a1.2 1.2 0 0 0-1.2 1.2v33.6a1.2 1.2 0 0 0 1.2 1.2h16.8m0-36v36" stroke="currentColor"/></symbol>
<symbol id="block_two_1_2" fill="none" viewBox="0 0 39 38"><g stroke-width="1.5" stroke="currentColor"><path stroke-linecap="round" d="M15.296 1v36"/><path d="M2.29 1h33.6a1.2 1.2 0 0 1 1.2 1.2v33.6a1.2 1.2 0 0 1-1.2 1.2H2.29a1.2 1.2 0 0 1-1.2-1.2V2.2A1.2 1.2 0 0 1 2.29 1Z"/></g></symbol>
<symbol id="block_two_2_1" fill="none" viewBox="0 0 39 38"><g stroke-width="1.5" stroke="currentColor"><path stroke-linecap="round" d="M22.886 37V1"/><path d="M35.89 37H2.29a1.2 1.2 0 0 1-1.2-1.2V2.2A1.2 1.2 0 0 1 2.29 1h33.6a1.2 1.2 0 0 1 1.2 1.2v33.6a1.2 1.2 0 0 1-1.2 1.2Z"/></g></symbol>
<symbol id="blocks" fill="none" viewBox="0 0 38 38"><path stroke-linecap="round" stroke-linejoin="round" stroke-width="1.616" d="m19.99 34.422 11.992-6.853a1.999 1.999 0 0 0 1.007-1.736V14.162c0-.718-.384-1.38-1.007-1.736L19.99 5.573a1.999 1.999 0 0 0-1.984 0L6.014 12.426a1.999 1.999 0 0 0-1.007 1.736v11.671c0 .718.384 1.38 1.007 1.736l11.992 6.853a1.998 1.998 0 0 0 1.984 0ZM6.006 14.001l12.992 6.996m0 0L31.99 14m-12.992 6.996v12.992M1.009 1.03l.02-.023M1.009 37.007l.02-.022M36.987 1.03l.02-.023M36.987 37.007l.02-.022" stroke="currentColor"/></symbol>
<symbol id="close" fill="none" viewBox="0 0 13 13"><path stroke-linecap="round" stroke-linejoin="round" stroke-width="1.28" d="m2 12 5-5m0 0 5-5M7 7 2 2m5 5 5 5" stroke="currentColor"/></symbol>
<symbol id="delete" fill="none" viewBox="0 0 18 18"><path stroke-linecap="round" stroke-linejoin="round" stroke-width="1.2" d="m15.4 6.6-1.596 9.077A1.6 1.6 0 0 1 12.228 17H5.772a1.6 1.6 0 0 1-1.576-1.323L2.6 6.6M16.2 4.2h-4.5m-9.9 0h4.5m0 0V2.6A1.6 1.6 0 0 1 7.9 1h2.2a1.6 1.6 0 0 1 1.6 1.6v1.6m-5.4 0h5.4" stroke="currentColor"/></symbol>
<symbol id="drag" fill="none" viewBox="0 0 14 14"><path fill-rule="evenodd" d="M.777 7.48a.406.406 0 0 1 0-.575l1.532-1.532a.406.406 0 0 1 .693.287v1.126h4.19a.406.406 0 1 1 0 .813h-4.19v1.125a.406.406 0 0 1-.693.288L.777 7.48Z" clip-rule="evenodd" fill="currentColor"/><path fill-rule="evenodd" d="M6.905 13.608a.406.406 0 0 0 .575 0l1.532-1.532a.406.406 0 0 0-.288-.694H7.6v-4.19a.406.406 0 1 0-.813 0v4.19H5.66a.406.406 0 0 0-.287.694l1.532 1.532Z" clip-rule="evenodd" fill="currentColor"/><path fill-rule="evenodd" d="M7.48.777a.406.406 0 0 0-.575 0L5.373 2.309a.406.406 0 0 0 .287.693h1.126v4.19a.406.406 0 1 0 .813 0v-4.19h1.125a.406.406 0 0 0 .288-.693L7.48.777Z" clip-rule="evenodd" fill="currentColor"/><path fill-rule="evenodd" d="M13.608 6.905a.406.406 0 0 1 0 .575l-1.532 1.532a.406.406 0 0 1-.694-.288V7.6h-4.19a.406.406 0 1 1 0-.813h4.19V5.66a.406.406 0 0 1 .694-.287l1.532 1.532Z" clip-rule="evenodd" fill="currentColor"/></symbol>
<symbol id="duplicate" fill="none" viewBox="0 0 13 13"><g stroke-linecap="round" stroke-linejoin="round" stroke-width="1.28" stroke="currentColor"><path d="M11.588 1H4.85a.412.412 0 0 0-.412.413V8.15c0 .228.184.412.412.412h6.738A.413.413 0 0 0 12 8.15V1.412A.413.413 0 0 0 11.588 1Z"/><path d="M8.563 8.563v3.024A.412.412 0 0 1 8.15 12H1.412A.413.413 0 0 1 1 11.588V4.85c0-.228.185-.412.413-.412h3.024"/></g></symbol>
<symbol id="edit" fill="none" viewBox="0 0 13 13"><path stroke-linecap="round" stroke-linejoin="round" stroke-width="1.28" d="m7.857 2.357.972-.972a1.314 1.314 0 0 1 1.857 0l.93.929a1.314 1.314 0 0 1 0 1.857l-.973.972M7.857 2.357 1.54 8.672a1.314 1.314 0 0 0-.38.813l-.158 1.8a.657.657 0 0 0 .712.712l1.8-.159c.307-.027.595-.161.813-.38l6.315-6.315M7.857 2.357l2.786 2.786" stroke="currentColor"/></symbol>
<symbol id="item_button" fill="none" viewBox="0 0 38 40"><g stroke-width="1.28" stroke="currentColor"><path stroke-linecap="round" stroke-linejoin="round" d="M36.95 23V13a4 4 0 0 0-4-4h-28a4 4 0 0 0-4 4v12a4 4 0 0 0 4 4h14"/><path d="M36.584 31.007c1.008.62.946 2.129-.092 2.247l-5.239.593-2.35 4.72c-.465.935-1.904.477-2.142-.682l-2.563-12.483c-.2-.98.68-1.597 1.532-1.073l10.854 6.678Z" clip-rule="evenodd"/></g></symbol>
<symbol stroke-width="1.5" id="item_html" fill="none" viewBox="0 0 24 24" color="currentColor"><path stroke-linecap="round" stroke-linejoin="round" d="M9 21H8c-1.105 0-2-.894-2-1.999V14c0-1-1.5-2-1.5-2S6 11 6 10V5a2 2 0 0 1 2-2h1M15 21h1c1.105 0 2-.894 2-1.999V14c0-1 1.5-2 1.5-2S18 11 18 10V5a2 2 0 0 0-2-2h-1" stroke="currentColor"/></symbol>
<symbol id="item_iframe" fill="none" viewBox="0 0 38 38"><path stroke="#999" stroke-linecap="round" stroke-linejoin="round" stroke-width="1.209" d="M6 1v36M32 1v36M1 7h36M1 31h36" style="stroke:var(--svg-secondary-color);"/><path stroke-linecap="round" stroke-linejoin="round" stroke-width=".969" d="m20.968 11.41-4.24 15.14M14.206 14.362 10 18.567l4.206 4.206M23.794 14.362 28 18.567l-4.206 4.206" stroke="currentColor"/></symbol>
<symbol id="item_image" fill="none" viewBox="0 0 40 40"><g stroke-linecap="round" stroke-linejoin="round" stroke-width="1.28" stroke="currentColor"><path d="M34.543 1.32H5.634a4.13 4.13 0 0 0-4.13 4.13v28.908a4.13 4.13 0 0 0 4.13 4.13h28.91a4.13 4.13 0 0 0 4.129-4.13V5.45a4.13 4.13 0 0 0-4.13-4.13Z"/><path d="m2.1 27.874 14.33-6.141 22.517 10.236M28.712 15.592a4.094 4.094 0 1 1 0-8.189 4.094 4.094 0 0 1 0 8.189Z"/></g></symbol>
<symbol id="item_map" fill="none" viewBox="0 0 38 38"><g stroke="currentColor"><path stroke-linecap="round" stroke-linejoin="round" stroke-width="1.18" d="M12.505 30.836 2.52 34.062c-.745.24-1.514-.297-1.514-1.058V5.637c0-.48.317-.905.786-1.057l10.714-3.46m0 29.716 9.986 3.226c.745.24 1.514-.297 1.514-1.058V5.637c0-.48-.317-.905-.786-1.057L12.505 1.12m0 29.716V1.12"/><path stroke-linecap="round" stroke-linejoin="round" stroke-width="1.28" d="m24.005 4.425 10.42-3.247c.778-.242 1.58.299 1.58 1.064V23.12"/><path stroke-width="1.28" d="M37.005 30.52c0 2.43-4.5 6.6-4.5 6.6s-4.5-4.17-4.5-6.6c0-2.43 2.015-4.4 4.5-4.4s4.5 1.97 4.5 4.4Z"/><path stroke-linecap="round" stroke-linejoin="round" stroke-width=".369" d="M32.505 31.12a.5.5 0 1 0 0-1 .5.5 0 0 0 0 1Z" fill="currentColor"/></g></symbol>
<symbol id="item_separator" fill="none" viewBox="0 0 39 38"><path stroke="#999" stroke-linecap="round" stroke-linejoin="round" stroke-width="1.287" d="M31.586 12.737 19.293.992 7 12.737M31.586 25.368 19.293 37.112 7 25.368" style="stroke:var(--svg-secondary-color);"/><path stroke-width="1.285" d="M1 19h36" stroke="currentColor"/></symbol>
<symbol id="item_slideshow" fill="none" viewBox="0 0 39 39"><g stroke-linecap="round" stroke-linejoin="round" stroke="currentColor"><path stroke-width="1.28" d="M34.433 7.17H10.828a3.372 3.372 0 0 0-3.372 3.372v23.605a3.372 3.372 0 0 0 3.372 3.372h23.605a3.372 3.372 0 0 0 3.373-3.372V10.542a3.372 3.372 0 0 0-3.373-3.373Z"/><path stroke-width="1.28" d="M31.433 4.17H7.828a3.372 3.372 0 0 0-3.372 3.372v23.605"/><path stroke-width="1.28" d="M28.433 1.17H4.828a3.372 3.372 0 0 0-3.372 3.372v23.605"/><path stroke-width="1.5" d="m7.428 28.695 11.802-3.901 18.545 6.503M28.02 20.458a3.252 3.252 0 1 1 0-6.503 3.252 3.252 0 0 1 0 6.503Z"/></g></symbol>
<symbol id="item_spacer" fill="none" viewBox="0 0 38 38"><g stroke="#999" style="stroke:var(--svg-secondary-color);"><path stroke-dasharray="4 2" stroke-width=".5" d="M.736 37h36"/><path stroke-linecap="round" stroke-linejoin="round" stroke-width="1.263" d="M31.117 13.754 19.428 2.138 7.736 13.754M31.117 25.209l-11.69 11.616L7.736 25.209"/><path stroke-dasharray="4 2" stroke-width=".5" d="M.736 2h36"/></g></symbol>
<symbol id="item_text" fill="none" viewBox="0 0 39 40"><g stroke-linecap="round" stroke-linejoin="round" stroke-width="1.28" stroke="currentColor"><path d="M33.738 1.22H4.829A4.13 4.13 0 0 0 .7 5.35v28.909a4.13 4.13 0 0 0 4.13 4.13h28.909a4.13 4.13 0 0 0 4.13-4.13V5.349a4.13 4.13 0 0 0-4.13-4.13ZM8.224 9.48h20.649M8.224 19.804h20.649M8.224 30.129h12.39"/></g></symbol>
<symbol id="item_title" fill="none" viewBox="0 0 40 39"><g stroke-linecap="round" stroke-linejoin="round" stroke-width="1.28" stroke="currentColor"><path d="M19.881 11.525V28.14m0-16.614h-8.377m8.377 0h8.377M34.13 1H5.22a4.13 4.13 0 0 0-4.13 4.13v28.909a4.13 4.13 0 0 0 4.13 4.13h28.91a4.13 4.13 0 0 0 4.13-4.13V5.129A4.13 4.13 0 0 0 34.13 1Z"/></g></symbol>
<symbol id="item_videoEmbed" fill="none" viewBox="0 0 40 40"><g stroke-linecap="round" stroke-linejoin="round" stroke-width="1.28" stroke="currentColor"><path d="M34.62 1.283H5.71a4.13 4.13 0 0 0-4.13 4.13v28.909a4.13 4.13 0 0 0 4.13 4.13h28.91a4.13 4.13 0 0 0 4.129-4.13V5.412a4.13 4.13 0 0 0-4.13-4.13Z"/><path d="M16.296 12.411a1.228 1.228 0 0 0-1.838 1.067v12.144a1.228 1.228 0 0 0 1.838 1.066l10.626-6.072a1.228 1.228 0 0 0 0-2.133l-10.626-6.072Z"/></g></symbol>
<symbol id="items" fill="none" viewBox="0 0 38 38"><g stroke-linecap="round" stroke-linejoin="round" stroke-width="1.28" stroke="currentColor"><path d="m3.513 16.154 11.689-11.69 14.027 14.028-11.69 11.688a3.306 3.306 0 0 1-4.675 0l-9.351-9.35a3.306 3.306 0 0 1 0-4.676ZM12.864 2.127l2.338 2.338"/><path fill-rule="evenodd" stroke-miterlimit="1.5" d="M32.215 23.935s4.96 4.948 4.96 8.078a4.961 4.961 0 0 1-4.959 4.959c-2.736 0-4.939-2.222-4.958-4.96.016-3.13 4.957-8.077 4.957-8.077Z" clip-rule="evenodd" fill="currentColor"/></g></symbol>
<symbol id="moveBottom" fill="none" viewBox="0 0 12 12"><g fill-rule="evenodd" clip-rule="evenodd" fill="currentColor"><path d="M1.042 5.787a.556.556 0 0 1 .514-.343h8.888a.556.556 0 0 1 .393.949l-4.444 4.444a.556.556 0 0 1-.786 0L1.163 6.393a.556.556 0 0 1-.12-.606Z"/><path d="M1.042 1.343A.556.556 0 0 1 1.556 1h8.888a.556.556 0 0 1 .393.948L6.393 6.393a.556.556 0 0 1-.786 0L1.163 1.948a.556.556 0 0 1-.12-.605Z"/></g></symbol>
<symbol id="moveDown" fill="none" viewBox="0 0 12 12"><path fill-rule="evenodd" d="M1.042 3.343A.556.556 0 0 1 1.556 3h8.888a.556.556 0 0 1 .393.948L6.393 8.393a.556.556 0 0 1-.786 0L1.163 3.948a.556.556 0 0 1-.12-.605Z" clip-rule="evenodd" fill="currentColor"/></symbol>
<symbol id="moveTop" fill="none" viewBox="0 0 12 12"><g fill-rule="evenodd" clip-rule="evenodd" fill="currentColor"><path d="M10.958 6.213a.556.556 0 0 1-.514.343H1.556a.555.555 0 0 1-.393-.949l4.444-4.444a.556.556 0 0 1 .786 0l4.444 4.444a.555.555 0 0 1 .12.606Z"/><path d="M10.958 10.657a.556.556 0 0 1-.514.343H1.556a.556.556 0 0 1-.393-.948l4.444-4.445a.556.556 0 0 1 .786 0l4.444 4.445a.555.555 0 0 1 .12.605Z"/></g></symbol>
<symbol id="moveUp" fill="none" viewBox="0 0 12 12"><path fill-rule="evenodd" d="M10.958 8.657a.556.556 0 0 1-.514.343H1.556a.556.556 0 0 1-.393-.948l4.444-4.445a.556.556 0 0 1 .786 0l4.444 4.445a.556.556 0 0 1 .12.605Z" clip-rule="evenodd" fill="currentColor"/></symbol>
<symbol id="page" fill="none" viewBox="0 0 38 38"><path stroke-width="1.28" d="M1 13.8V2.2A1.2 1.2 0 0 1 2.2 1h33.6A1.2 1.2 0 0 1 37 2.2v11.6a1.2 1.2 0 0 1-1.2 1.2H2.2A1.2 1.2 0 0 1 1 13.8ZM23 35.8V24.2a1.2 1.2 0 0 1 1.2-1.2h11.6a1.2 1.2 0 0 1 1.2 1.2v11.6a1.2 1.2 0 0 1-1.2 1.2H24.2a1.2 1.2 0 0 1-1.2-1.2ZM1 35.8V24.2A1.2 1.2 0 0 1 2.2 23h11.6a1.2 1.2 0 0 1 1.2 1.2v11.6a1.2 1.2 0 0 1-1.2 1.2H2.2A1.2 1.2 0 0 1 1 35.8Z" stroke="currentColor"/></symbol>
<symbol id="templates" fill="none" viewBox="0 0 38 38"><g stroke-linecap="round" stroke-linejoin="round" stroke-width="1.28" stroke="currentColor"><path d="M17.111 26.555v-9.444H2M36 11.444H24.667v3.778M24.667 30.333V36M17.111 32.222V36M17.111 2v5.667M36 24.667H24.667v-3.778M17.111 13.333v3.778"/><path d="M36 3.133v31.734c0 .626-.507 1.133-1.133 1.133H3.133A1.133 1.133 0 0 1 2 34.867V3.133C2 2.507 2.507 2 3.133 2h31.734C35.493 2 36 2.507 36 3.133Z"/></g></symbol>
<symbol id="theme" fill="none" viewBox="0 0 22 23"><g stroke="currentColor"><path stroke-width="1.28" d="M20.35 8.329a2.171 2.171 0 0 1-1.145 1.247 8.007 8.007 0 0 0-4.735 7.287c.001.537.055 1.074.16 1.601a2.473 2.473 0 0 1-.355 1.888 2.047 2.047 0 0 1-1.384.915A10.294 10.294 0 0 1 .742 10.823a10.353 10.353 0 0 1 9.7-9.976h.584a10.296 10.296 0 0 1 9.22 5.72c.263.543.3 1.168.103 1.739v.023Z"/><circle cx="10.56" cy="17.323" r="1.548" stroke-width="1.28"/><circle cx="2.919" cy="13.241" r=".64" stroke-width=".361"/><circle cx="3.396" cy="8.955" r=".64" stroke-width=".361"/><circle cx="5.693" cy="5.783" r=".64" stroke-width=".361"/><circle cx="9.193" cy="3.377" r=".64" stroke-width=".361"/></g></symbol>
<symbol id="tpl" fill="none" viewBox="0 0 38 38"><g stroke-width="1.28" stroke="currentColor"><path d="M4.75 11.717V5.7a.95.95 0 0 1 .95-.95h9.183a.95.95 0 0 1 .95.95v6.017a.95.95 0 0 1-.95.95H5.7a.95.95 0 0 1-.95-.95ZM22.167 32.3v-6.017a.95.95 0 0 1 .95-.95H32.3a.95.95 0 0 1 .95.95V32.3a.95.95 0 0 1-.95.95h-9.183a.95.95 0 0 1-.95-.95ZM22.167 19.633V5.7a.95.95 0 0 1 .95-.95H32.3a.95.95 0 0 1 .95.95v13.933a.95.95 0 0 1-.95.95h-9.183a.95.95 0 0 1-.95-.95ZM4.75 32.3V18.367a.95.95 0 0 1 .95-.95h9.183a.95.95 0 0 1 .95.95V32.3a.95.95 0 0 1-.95.95H5.7a.95.95 0 0 1-.95-.95Z"/></g></symbol>
<symbol id="tpl_content" fill="none" viewBox="0 0 38 38"><path stroke-linecap="round" stroke-linejoin="round" stroke-width="1.369" d="m12.65 3.226 8.691 8.541m0 0 3.721 13.192-13.253-3.492m9.533-9.7s-2.555.175-3.596 1.233c-1.04 1.06-1.17 3.617-1.17 3.617s-2.556.174-3.596 1.233c-1.041 1.059-1.171 3.617-1.171 3.617m0 0-8.691-8.541m27.798-6.05c6.696 6.58 6.79 17.344.209 24.04-6.581 6.696-17.345 6.79-24.041.209C.388 24.544.294 13.78 6.875 7.084 13.456.388 24.22.294 30.916 6.875Z" stroke="currentColor"/></symbol>
<symbol id="tpl_empty" fill="none" viewBox="0 0 38 38"><g stroke-linecap="round" stroke-linejoin="round"><path stroke-width="2.375" d="m31.68 12.667-.016.017M31.68 19l-.016.018M31.68 26l-.016.018M31.68 6.333l-.016.018M25.349 6.333l-.016.018M19.015 6.333 19 6.351M12.682 6.333l-.016.018M6.349 6.333l-.016.018M6.349 12.667l-.016.017M6.349 19l-.016.018M6.349 25.333l-.016.018M6.349 31.667l-.016.017M12.682 31.667l-.016.017M19.016 32l-.016.018M25.016 32l-.016.018M31.68 32l-.016.018" stroke="currentColor"/><path stroke="#999" stroke-dasharray="1 4" stroke-width="1.28" d="M25.682 13.016v12.667H13.016V13.016h12.666Z" style="stroke:var(--svg-secondary-color);"/></g></symbol>
<symbol id="view" fill="none" viewBox="0 0 24 14"><g stroke-linecap="round" stroke-linejoin="round" stroke-width="1.28" stroke="currentColor"><path d="M.632 8.305C5.179-1.8 18.822-1.8 23.369 8.305"/><path d="M12 13.358a3.79 3.79 0 1 1 0-7.579 3.79 3.79 0 0 1 0 7.579Z"/></g></symbol>
</svg>