<?xml version="1.0" encoding="utf-8"?>
<!DOCTYPE svg PUBLIC "-//W3C//DTD SVG 1.1//EN" "http://www.w3.org/Graphics/SVG/1.1/DTD/svg11.dtd">
<svg xmlns="http://www.w3.org/2000/svg" style="display: none;">
	<symbol id="delete" viewBox="0 0 60 60">
		<path d="M42.825,17.508c-6.898-6.9-18.085-6.9-24.983,0c-6.9,6.899-6.9,18.085,0,24.984
			c6.898,6.899,18.085,6.899,24.983,0C49.725,35.594,49.725,24.407,42.825,17.508z M34.261,39.213l-4.126-4.126l-4.126,4.126
			l-4.084-4.084l4.126-4.126l-4.126-4.125l4.084-4.084l4.126,4.125l4.126-4.126l4.083,4.085l-4.125,4.125l4.126,4.126L34.261,39.213z"
			/>
	</symbol>
	<symbol id="drag" viewBox="0 0 60 60">
		<rect x="15" y="29"  width="9" height="1"/>
		<rect x="15" y="29" fill="none" stroke-width="2" stroke-miterlimit="10" width="9" height="1"/>
		<polygon  points="17.468,26.394 18.006,26.971 15.157,29.618 18.006,32.266 17.468,32.843 12.18,29.618 "/>
		<polygon fill="none" stroke-width="1.5" stroke-miterlimit="10" points="17.468,26.394 18.006,26.971 
			15.157,29.618 18.006,32.266 17.468,32.843 12.18,29.618 "/>
		<rect x="36" y="29"  width="9" height="1"/>
		<rect x="36" y="29" fill="none" stroke-width="2" stroke-miterlimit="10" width="9" height="1"/>
		<polygon  points="42.712,32.843 42.174,32.266 45.021,29.619 42.174,26.972 42.712,26.394 48,29.619 "/>
		<polygon fill="none" stroke-width="1.5" stroke-miterlimit="10" points="42.712,32.843 42.174,32.266 
			45.021,29.619 42.174,26.972 42.712,26.394 48,29.619 "/>
		<rect x="30" y="15"  width="1" height="9"/>
		<rect x="30" y="15" fill="none" stroke-width="2" stroke-miterlimit="10" width="1" height="9"/>
		<polygon  points="33.314,16.996 32.736,17.534 30.09,14.687 27.443,17.534 26.865,16.996 30.09,11.708 "/>
		<polygon fill="none" stroke-width="1.5" stroke-miterlimit="10" points="33.314,16.996 32.736,17.534 
			30.09,14.687 27.443,17.534 26.865,16.996 30.09,11.708 "/>
		<rect x="30" y="36"  width="1" height="9"/>
		<rect x="30" y="36" fill="none" stroke-width="2" stroke-miterlimit="10" width="1" height="9"/>
		<polygon  points="26.865,42.24 27.443,41.702 30.09,44.551 32.736,41.702 33.314,42.24 30.09,47.528 "/>
		<polygon fill="none" stroke-width="1.5" stroke-miterlimit="10" points="26.865,42.24 27.443,41.702 30.09,44.551 
			32.736,41.702 33.314,42.24 30.09,47.528 "/>
	</symbol>
	<symbol id="edit" viewBox="0 0 60 60">
		<rect x="9.846" y="16.25" fill="none" stroke-miterlimit="10" width="23.513" height="26.971"/>
		<polygon  points="29,32.865 41.136,20.548 45.851,24.948 33.301,37 29,37 "/>
		<path  d="M41.7,19.708l2.939-2.753c0,0,0.373-0.747,1.634,0.607c1.26,1.353,2.846,2.986,2.846,2.986
			s0.56,0.56,0,1.026c-0.561,0.467-2.66,2.66-2.66,2.66L41.7,19.708z"/>
	</symbol>
	<symbol id="expand" viewBox="0 0 60 60">
		<path d="M30.333,12.333c-9.757,0-17.666,7.91-17.666,17.667s7.909,17.667,17.666,17.667S48,39.757,48,30
			S40.09,12.333,30.333,12.333z M39.625,33.736H33.79v5.836h-5.776v-5.836H22.18v-5.775h5.834v-5.834h5.776v5.834h5.835V33.736z"/>
	</symbol>
	<symbol id="eye" viewBox="0 0 60 60">
		<path fill="none" stroke-width="5" d="M8.167,28.766c0,0,8.167-14.833,21.667-14.833s22,14.833,22,14.833V31.1
			c0,0-8.999,14.666-21.833,14.666S8.167,30.933,8.167,30.933V28.766z"/>
		<path  d="M29.751,21.433c-4.875,0.001-8.084,3.619-8.084,8.084c0,4.463,3.618,8.083,8.084,8.083
			c0,0,10.249-1.1,7.226-10.638l-7.396,2.555l1.703-7.917C31.283,21.6,32.584,21.516,29.751,21.433"/>
	</symbol>
	<symbol id="pencil" viewBox="0 0 60 60">
		<polygon  points="13,39.665 33.171,19.494 41.04,26.982 20.64,47 13,47 "/>
		<path  d="M34.394,18.119l4.813-4.508c0,0,0.612-1.222,2.675,0.993c2.063,2.216,4.66,4.89,4.66,4.89
			s0.917,0.917,0,1.681c-0.917,0.764-4.354,4.355-4.354,4.355L34.394,18.119z"/>
	</symbol>
	<symbol id="add" viewBox="0 0 60 60">
		<rect x="17.261" y="25.873"  width="24.933" height="8.254"/>
		<rect x="25.6" y="17.534"  width="8.254" height="24.932"/>
	</symbol>
	<symbol id="arrow" viewBox="0 0 60 60">
		<path  d="M58.798,49.666c0,0,0.202-28.752-31.798-29.767v-8.118c0,0,0.911-2.03-4.162,1.691
		C17.764,17.193,3.674,26.665,3.674,26.665s-1.972,2.322,0.059,3.698c2.029,1.375,20.767,14.568,20.767,14.568S27,46.961,27,43.24
			v-7.104C27,36.136,43.575,32.414,58.798,49.666"/>
	</symbol>
	<symbol id="reduce" viewBox="0 0 60 60">
		<path d="M30.333,12.333c-9.757,0-17.666,7.91-17.666,17.667s7.909,17.667,17.666,17.667S48,39.757,48,30
			S40.09,12.333,30.333,12.333z M39.625,33.736H22.18v-5.775h17.445V33.736z"/>
	</symbol>
</svg>