<svg xmlns="http://www.w3.org/2000/svg" style="display: none;">
<symbol id="add" fill="none" viewBox="0 0 18 18"><path stroke-linecap="round" stroke-linejoin="round" stroke-width="1.28" d="M6.667 9H9m0 0h2.333M9 9V6.667M9 9v2.333M16 2.467v13.066a.467.467 0 0 1-.467.467H2.467A.467.467 0 0 1 2 15.533V2.467C2 2.209 2.209 2 2.467 2h13.066c.258 0 .467.209.467.467Z" stroke="currentColor"/></symbol>
<symbol id="addCircle" fill="none" viewBox="0 0 24 24"><path stroke-linecap="round" stroke-linejoin="round" stroke-width="1.5" d="M12 22c5.523 0 10-4.477 10-10S17.523 2 12 2 2 6.477 2 12s4.477 10 10 10Z" stroke="currentColor"/><path stroke-linecap="round" stroke-linejoin="round" stroke-width="1.5" d="M8 12h4m4 0h-4m0 0V8m0 4v4" stroke="currentColor"/></symbol>
<symbol id="arrow" fill="none" viewBox="0 0 20 20"><path stroke-linecap="round" stroke-linejoin="round" stroke-width="1.25" d="m2 9.5 16 .04m0 0-8-6.52m8 6.52-8 6.48" stroke="currentColor"/></symbol>
<symbol id="calendar" fill="none" viewBox="0 0 24 24"><path stroke-linecap="round" stroke-linejoin="round" stroke-width="1.5" d="M15 4V2m0 2v2m0-2h-4.5M3 10v9a2 2 0 0 0 2 2h14a2 2 0 0 0 2-2v-9H3ZM3 10V6a2 2 0 0 1 2-2h2M7 2v4M21 10V6a2 2 0 0 0-2-2h-.5" stroke="currentColor"/></symbol>
<symbol id="calendarCheck" fill="none" viewBox="0 0 24 24"><path stroke-linecap="round" stroke-linejoin="round" stroke-width="1.5" d="M13 21H5a2 2 0 0 1-2-2v-9h18v5M15 4V2m0 2v2m0-2h-4.5M3 10V6a2 2 0 0 1 2-2h2M7 2v4M21 10V6a2 2 0 0 0-2-2h-.5M16 20l2 2 4-4" stroke="currentColor"/></symbol>
<symbol id="check" fill="none" viewBox="0 0 18 16"><path stroke-linecap="round" stroke-linejoin="round" stroke-width="1.25" d="M1 9.2 5.571 14 17 2" stroke="currentColor"/></symbol>
<symbol id="chevron" fill="none" viewBox="0 0 25 25"><path d="M13.602 12.185 9.187 7.771a.892.892 0 0 1 1.261-1.261l5.045 5.045a.892.892 0 0 1 0 1.26l-5.045 5.046a.892.892 0 0 1-1.26-1.261l4.414-4.415Z" fill="currentColor"/></symbol>
<symbol id="circle" fill="none" viewBox="0 0 24 24"><path stroke-linecap="round" stroke-linejoin="round" stroke-width="1.5" d="M12 22c5.523 0 10-4.477 10-10S17.523 2 12 2 2 6.477 2 12s4.477 10 10 10Z" stroke="currentColor"/></symbol>
<symbol id="close" fill="none" viewBox="0 0 13 13"><path stroke-linecap="round" stroke-linejoin="round" stroke-width="1.28" d="m2 12 5-5m0 0 5-5M7 7 2 2m5 5 5 5" stroke="currentColor"/></symbol>
<symbol id="closeCircle" fill="none" viewBox="0 0 24 24"><path stroke-linecap="round" stroke-linejoin="round" stroke-width="1.5" d="M9.171 14.828 12 12m2.828-2.828L12 12m0 0L9.17 9.172M12 12l2.828 2.828M12 22c5.523 0 10-4.477 10-10S17.523 2 12 2 2 6.477 2 12s4.477 10 10 10Z" stroke="currentColor"/></symbol>
<symbol id="columns" fill="none" viewBox="0 0 24 24"><path stroke-width="1.5" d="M3 20.4V3.6a.6.6 0 0 1 .6-.6h16.8a.6.6 0 0 1 .6.6v16.8a.6.6 0 0 1-.6.6H3.6a.6.6 0 0 1-.6-.6ZM3 16.5h18M3 12h18M21 7.5H3M12 21V3" stroke="currentColor"/></symbol>
<symbol id="comment" fill="none" viewBox="0 0 24 24"><path stroke-linecap="round" stroke-linejoin="round" stroke-width="1.5" d="M8 10h8M8 14h4M12 22c5.523 0 10-4.477 10-10S17.523 2 12 2 2 6.477 2 12c0 1.821.487 3.53 1.338 5L2.5 21.5l4.5-.838A9.955 9.955 0 0 0 12 22Z" stroke="currentColor"/></symbol>
<symbol id="competition" fill="none" viewBox="0 0 24 25"><path stroke-linecap="round" stroke-linejoin="round" stroke-width="1.5" d="m14.835 10.443 4.239-9.6m-9.872 9.813L4.295.842m8.823 9.15L8.655.841m6.28 0-1.182 2.842M5.432 16.758a6.821 6.821 0 1 0 13.642 0 6.821 6.821 0 0 0-13.642 0Z" stroke="currentColor"/><path stroke-linecap="round" stroke-linejoin="round" stroke-width="1.5" d="m10.611 15.621 2.274-1.705V19.6" stroke="currentColor"/></symbol>
<symbol id="composer" fill="none" viewBox="0 0 24 24"><path stroke-linecap="round" stroke-linejoin="round" stroke-width="1.5" d="M5 3h14a2 2 0 0 1 2 2v14a2 2 0 0 1-2 2H5a2 2 0 0 1-2-2V5a2 2 0 0 1 2-2Z" stroke="currentColor"/><path stroke-linecap="round" stroke-linejoin="round" stroke-width="1.5" d="M13.6 6h3.8a.6.6 0 0 1 .6.6v10.8a.6.6 0 0 1-.6.6h-3.8a.6.6 0 0 1-.6-.6V6.6a.6.6 0 0 1 .6-.6ZM6.6 6h3.8a.6.6 0 0 1 .6.6v6.8a.6.6 0 0 1-.6.6H6.6a.6.6 0 0 1-.6-.6V6.6a.6.6 0 0 1 .6-.6Z" stroke="currentColor"/></symbol>
<symbol id="content" fill="none" viewBox="0 0 24 24"><path stroke-linecap="round" stroke-linejoin="round" stroke-width="1.5" d="m7.99 2.038 5.489 5.394m0 0 2.35 8.331-8.37-2.205m6.02-6.126s-1.614.11-2.271.779c-.657.668-.74 2.284-.74 2.284s-1.613.11-2.27.779c-.658.669-.74 2.284-.74 2.284m0 0L1.97 8.164m17.557-3.822c4.23 4.157 4.288 10.955.132 15.184-4.157 4.23-10.955 4.288-15.184.132C.244 15.5.186 8.703 4.342 4.474 8.5.244 15.297.186 19.526 4.342Z" stroke="currentColor"/></symbol>
<symbol id="delete" fill="none" viewBox="0 0 24 24"><path stroke-linecap="round" stroke-linejoin="round" stroke-width="1.5" d="m20 9-1.995 11.346A2 2 0 0 1 16.035 22h-8.07a2 2 0 0 1-1.97-1.654L4 9M21 6h-5.625M3 6h5.625m0 0V4a2 2 0 0 1 2-2h2.75a2 2 0 0 1 2 2v2m-6.75 0h6.75" stroke="currentColor"/></symbol>
<symbol id="docEdit" fill="none" viewBox="0 0 24 24"><path stroke-linecap="round" stroke-linejoin="round" stroke-width="1.5" d="M20 12V5.749a.6.6 0 0 0-.176-.425l-3.148-3.148A.6.6 0 0 0 16.252 2H4.6a.6.6 0 0 0-.6.6v18.8a.6.6 0 0 0 .6.6H11M8 10h8M8 6h4m-4 8h3M17.954 16.94l1-1a1.121 1.121 0 0 1 1.586 0v0a1.121 1.121 0 0 1 0 1.585l-1 1m-1.586-1.586-2.99 2.991a1 1 0 0 0-.282.553l-.242 1.557 1.556-.243a1 1 0 0 0 .553-.28l2.991-2.992m-1.586-1.586 1.586 1.586" stroke="currentColor"/><path stroke-linecap="round" stroke-linejoin="round" stroke-width="1.5" d="M16 2v3.4a.6.6 0 0 0 .6.6H20" stroke="currentColor"/></symbol>
<symbol id="docStar" fill="none" viewBox="0 0 20 20"><path stroke-linecap="round" stroke-linejoin="round" stroke-width="1.25" d="M16.666 10V4.79a.5.5 0 0 0-.146-.353l-2.624-2.624a.5.5 0 0 0-.353-.146h-9.71a.5.5 0 0 0-.5.5v15.666a.5.5 0 0 0 .5.5h5.333M6.667 8.333h6.667M6.667 5H10m-3.333 6.667h2.5" stroke="currentColor"/><path stroke-linecap="round" stroke-linejoin="round" stroke-width="1.25" d="m13.588 14.261.758-1.606a.26.26 0 0 1 .475 0l.758 1.606 1.694.26c.218.032.304.312.147.473l-1.226 1.25.29 1.764c.037.227-.19.4-.385.293l-1.515-.834-1.515.834c-.195.107-.422-.066-.385-.293l.29-1.765-1.227-1.25c-.157-.16-.07-.44.147-.473l1.694-.259ZM13.333 1.667V4.5a.5.5 0 0 0 .5.5h2.833" stroke="currentColor"/></symbol>
<symbol id="docs" fill="none" viewBox="0 0 24 24"><path stroke-linecap="round" stroke-linejoin="round" stroke-width="1.5" d="M6.631 18.442h7.516M6.631 14.148h1.074M6.631 9.853h3.221M6.631 1.263h10.2l4.832 4.832v13.42" stroke="currentColor"/><path stroke-linecap="round" stroke-linejoin="round" stroke-width="1.5" d="M2.337 21.126V6.095c0-.89.721-1.61 1.61-1.61h10.47c.171 0 .335.067.456.188l3.38 3.38c.121.121.19.285.19.456v12.617c0 .89-.722 1.61-1.611 1.61H3.947a1.61 1.61 0 0 1-1.61-1.61Z" stroke="currentColor"/><path stroke-linecap="round" stroke-linejoin="round" stroke-width="1.5" d="M14.148 4.484v3.65c0 .356.288.645.644.645h3.65" stroke="currentColor"/></symbol>
<symbol id="dots" fill="none" viewBox="0 0 24 24"><path stroke-linecap="round" stroke-linejoin="round" stroke-width="1.5" d="M12 6a.5.5 0 1 0 0-1 .5.5 0 0 0 0 1ZM12 12.5a.5.5 0 1 0 0-1 .5.5 0 0 0 0 1ZM12 19a.5.5 0 1 0 0-1 .5.5 0 0 0 0 1Z" fill="currentColor" stroke="currentColor"/></symbol>
<symbol id="download" fill="none" viewBox="0 0 24 24"><path stroke-linecap="round" stroke-linejoin="round" stroke-width="1.5" d="M12 13v9m0 0 3.5-3.5M12 22l-3.5-3.5M20 17.607c1.494-.585 3-1.918 3-4.607 0-4-3.333-5-5-5 0-2 0-6-6-6S6 6 6 8c-1.667 0-5 1-5 5 0 2.689 1.506 4.022 3 4.607" stroke="currentColor"/></symbol>
<symbol id="downloadCircle" fill="none" viewBox="0 0 20 20"><path stroke-linecap="round" stroke-linejoin="round" stroke-width="1.25" d="M7.368 13.165h5.043M10.038 4.957v5.493m0 0 2.67-2.747m-2.67 2.747-2.67-2.747M9.735 17.512c4.213 0 7.629-3.513 7.629-7.847 0-4.334-3.416-7.847-7.63-7.847-4.213 0-7.629 3.513-7.629 7.847 0 4.334 3.416 7.847 7.63 7.847Z" stroke="currentColor"/></symbol>
<symbol id="drag" fill="none" viewBox="0 0 24 24"><path stroke-linecap="round" stroke-linejoin="round" stroke-width="1.5" d="M12 12 4 4m0 0v4m0-4h4M12 12l8-8m0 0v4m0-4h-4M12 12l-8 8m0 0v-4m0 4h4M12 12l8 8m0 0v-4m0 4h-4" stroke="currentColor"/></symbol>
<symbol id="duplicate" fill="none" viewBox="0 0 24 24"><path stroke-linecap="round" stroke-linejoin="round" stroke-width="1.5" d="M19.4 20H9.6a.6.6 0 0 1-.6-.6V9.6a.6.6 0 0 1 .6-.6h9.8a.6.6 0 0 1 .6.6v9.8a.6.6 0 0 1-.6.6Z" stroke="currentColor"/><path stroke-linecap="round" stroke-linejoin="round" stroke-width="1.5" d="M15 9V4.6a.6.6 0 0 0-.6-.6H4.6a.6.6 0 0 0-.6.6v9.8a.6.6 0 0 0 .6.6H9" stroke="currentColor"/></symbol>
<symbol id="edit" fill="none" viewBox="0 0 24 24"><path stroke-linecap="round" stroke-linejoin="round" stroke-width="1.5" d="m14.363 5.652 1.48-1.48a2 2 0 0 1 2.829 0l1.414 1.414a2 2 0 0 1 0 2.828l-1.48 1.48m-4.243-4.242-9.616 9.615a2 2 0 0 0-.578 1.238l-.242 2.74a1 1 0 0 0 1.084 1.085l2.74-.242a2 2 0 0 0 1.24-.578l9.615-9.616m-4.243-4.242 4.243 4.242" stroke="currentColor"/></symbol>
<symbol id="editPlus" fill="none" viewBox="0 0 18 20"><path stroke-linecap="round" stroke-linejoin="round" stroke-width="1.25" d="M15.26 5.272a1.75 1.75 0 0 0 0-2.47L14 1.52a1.677 1.677 0 0 0-2.426 0L10.216 2.9l3.686 3.753 1.358-1.382ZM6.917 13.864c0-2.765 2.232-5.037 4.948-5.135l1.94-1.976-3.59-3.852-8.536 8.692c-.291.296-.485.691-.485 1.086L1 15.15c0 .493.485.987.97.987l2.425-.198c.485 0 .776-.197 1.067-.493l1.455-1.482v-.099Z" stroke="currentColor"/><path stroke-miterlimit="10" stroke-width="1.25" d="M12.058 8.729c2.813 0 5.142 2.271 5.142 5.135S14.87 19 12.058 19s-5.141-2.271-5.141-5.136c0-2.864 2.328-5.135 5.141-5.135Z" stroke="currentColor"/><path stroke-linecap="round" stroke-linejoin="round" stroke-width="1.25" d="M9.343 13.963h5.723M12.155 16.827v-5.926" stroke="currentColor"/></symbol>
<symbol id="education" fill="none" viewBox="0 0 24 24"><path stroke-linecap="round" stroke-linejoin="round" stroke-width="1.165" d="m1.182 8.019 9.402-4.738a.647.647 0 0 1 .582 0l9.401 4.738c.48.242.48.933 0 1.174l-9.4 4.738a.646.646 0 0 1-.583 0L1.182 9.193a.659.659 0 0 1 0-1.174Z" stroke="currentColor"/><path stroke-linecap="round" stroke-linejoin="round" stroke-width="1.165" d="M22.82 13.096V9.282l-1.96-1.09M3.25 10.595v5.967c0 .851.483 1.626 1.24 1.991l5.43 2.617a2.134 2.134 0 0 0 1.862 0l5.43-2.617a2.208 2.208 0 0 0 1.24-1.991v-5.967" stroke="currentColor"/></symbol>
<symbol id="email" fill="none" viewBox="0 0 24 24"><path stroke-linecap="round" stroke-linejoin="round" stroke-width="1.5" d="M17.5 19.125A9 9 0 1 1 21 12c0 5.5-6 5.5-6 2V8" stroke="currentColor"/><path stroke-linecap="round" stroke-linejoin="round" stroke-width="1.5" d="M15 12v-1.5C15 9.12 13.657 8 12 8s-3 1.12-3 2.5V12M15 12v1.5c0 1.38-1.343 2.5-3 2.5s-3-1.12-3-2.5V12" stroke="currentColor"/></symbol>
<symbol id="emoji" fill="none" viewBox="0 0 24 24"><path stroke-linecap="round" stroke-linejoin="round" stroke-width="1.5" d="M12 22C6.477 22 2 17.523 2 12S6.477 2 12 2s10 4.477 10 10-4.477 10-10 10Z" stroke="currentColor"/><path stroke-linecap="round" stroke-linejoin="round" stroke-width="1.5" d="M16.5 14.5s-1.5 2-4.5 2-4.5-2-4.5-2" stroke="currentColor"/><path stroke-linecap="round" stroke-linejoin="round" stroke-width="1.5" d="M15.5 9a.5.5 0 1 1 0-1 .5.5 0 0 1 0 1ZM8.5 9a.5.5 0 1 1 0-1 .5.5 0 0 1 0 1Z" fill="currentColor" stroke="currentColor"/></symbol>
<symbol id="euro" fill="none" viewBox="0 0 24 24"><path stroke-linecap="round" stroke-linejoin="round" stroke-width="1.5" d="M18.5 4.804a8 8 0 1 0 0 14.392M5 10h11M5 14h11" stroke="currentColor"/></symbol>
<symbol id="events" fill="none" viewBox="0 0 24 24"><path stroke-linecap="round" stroke-linejoin="round" stroke-width="1.5" d="M22.737 12c0 5.93-4.807 10.737-10.737 10.737S1.263 17.93 1.263 12 6.07 1.263 12 1.263" stroke="currentColor"/><path stroke-linejoin="round" stroke-width="1.5" d="M13.074 6.095c3.364 0 4.831-1.416 4.831-4.832 0 3.416 1.457 4.832 4.832 4.832-3.375 0-4.832 1.456-4.832 4.831 0-3.375-1.467-4.831-4.831-4.831Z" stroke="currentColor"/></symbol>
<symbol id="filter" fill="none" viewBox="0 0 24 24"><path stroke-linecap="round" stroke-linejoin="round" stroke-width="1.5" d="M4 3h16a1 1 0 0 1 1 1v1.586a1 1 0 0 1-.293.707l-6.415 6.414a1 1 0 0 0-.292.707v6.305a1 1 0 0 1-1.243.97l-2-.5a1 1 0 0 1-.757-.97v-5.805a1 1 0 0 0-.293-.707L3.292 6.293A1 1 0 0 1 3 5.586V4a1 1 0 0 1 1-1Z" stroke="currentColor"/></symbol>
<symbol id="folder" fill="none" viewBox="0 0 30 30"><path d="M20.001 27h2.25c.535 0 1.027-.321 1.294-.852l5.25-10.285a1.93 1.93 0 0 0 .005-1.72c-.267-.536-.76-.857-1.298-.857H8.75c-.534 0-1.026.321-1.293.851l-3.207 6.28V6.428c0-.472.338-.858.75-.858h5.508c.197 0 .39.091.53.252l1.242 1.42C13.265 8.368 14.6 9 15.993 9h5.508c.413 0 .75.386.75.857v1.714h2.25V9.857c0-1.89-1.345-3.428-3-3.428h-5.508c-.797 0-1.56-.36-2.123-1.002l-1.243-1.425C12.065 3.359 11.301 3 10.504 3H5C3.345 3 2 4.537 2 6.429V23.57C2 25.462 3.345 27 5 27h15.001Z" fill="currentColor"/></symbol>
<symbol id="generetePdf" fill="none" viewBox="0 0 24 24"><path stroke-linecap="round" stroke-linejoin="round" stroke-width="1.5" d="M20 13V5.749a.6.6 0 0 0-.176-.425l-3.148-3.148A.6.6 0 0 0 16.252 2H4.6a.6.6 0 0 0-.6.6v18.8a.6.6 0 0 0 .6.6H14" stroke="currentColor"/><path stroke-linecap="round" stroke-linejoin="round" stroke-width="1.5" d="M16 2v3.4a.6.6 0 0 0 .6.6H20M16 19h6m0 0-3-3m3 3-3 3" stroke="currentColor"/><path d="M14.88 9.266v6h-.758v-6h.758Zm2.024 2.699v.65h-2.168v-.65h2.168Zm.342-2.7v.652h-2.51v-.651h2.51ZM11.504 15.266h-1.022l.009-.647h1.013c.36 0 .653-.069.878-.206.225-.14.392-.347.499-.619.107-.274.16-.614.16-1.017V11.75c0-.32-.03-.594-.09-.825-.06-.23-.151-.42-.272-.568a1.085 1.085 0 0 0-.458-.33 1.724 1.724 0 0 0-.646-.111h-1.113v-.651h1.113c.337 0 .642.053.914.16.272.105.506.263.7.474.196.209.344.469.446.78.104.31.156.67.156 1.079v1.018c0 .409-.052.769-.156 1.08-.102.31-.252.57-.45.778a1.908 1.908 0 0 1-.72.474c-.28.104-.6.157-.96.157Zm-.601-6v6h-.758v-6h.758ZM8.22 12.913H6.908v-.647h1.31c.247 0 .447-.05.598-.149a.84.84 0 0 0 .334-.412c.071-.176.107-.376.107-.601 0-.206-.036-.4-.107-.581a.928.928 0 0 0-.334-.437c-.151-.113-.35-.17-.598-.17H7.065v5.35h-.758v-6H8.22c.388 0 .715.078.981.235.266.156.468.373.606.65.14.275.21.59.21.944 0 .385-.07.713-.21.985a1.41 1.41 0 0 1-.606.622c-.266.14-.593.21-.98.21Z" fill="currentColor"/></symbol>
<symbol id="handCard" fill="none" viewBox="0 0 24 24"><path stroke-linecap="round" stroke-linejoin="round" stroke-width="1.5" d="M11 9h11M2 11l2.807-3.157A4 4 0 0 1 7.797 6.5H8M2 19.5h5.5l4-3s.81-.547 2-1.5c2.5-2 0-5.166-2.5-3.5C8.964 12.857 7 14 7 14" stroke="currentColor"/><path stroke-width="1.5" d="M8 13.5V7a2 2 0 0 1 2-2h10a2 2 0 0 1 2 2v6a2 2 0 0 1-2 2h-6.5" stroke="currentColor"/></symbol>
<symbol id="handHeart" fill="none" viewBox="0 0 24 24"><path stroke-linejoin="round" stroke-width="1.5" d="M16.548 5.497c0 .684-.27 1.34-.752 1.826-1.11 1.119-2.187 2.285-3.338 3.363a.679.679 0 0 1-.935-.02L8.205 7.323a2.593 2.593 0 0 1 0-3.652 2.588 2.588 0 0 1 3.675 0l.12.121.12-.121a2.588 2.588 0 0 1 4.428 1.826Z" stroke="currentColor"/><path stroke-linecap="round" stroke-linejoin="round" stroke-width="1.5" d="m18.822 21.095 4.348-4.348a.682.682 0 0 0 .2-.482v-5.97c0-.942-.764-1.706-1.706-1.706v0c-.941 0-1.705.764-1.705 1.706v5.115" stroke="currentColor"/><path stroke-linecap="round" stroke-linejoin="round" stroke-width="1.5" d="m18.82 16.547.976-.975a.55.55 0 0 0 .162-.39v0a.55.55 0 0 0-.305-.492l-.503-.252a2.274 2.274 0 0 0-2.625.426l-1.017 1.018a2.274 2.274 0 0 0-.666 1.607v3.606M5.178 21.095.831 16.747a.682.682 0 0 1-.2-.482v-5.97c0-.942.763-1.706 1.705-1.706v0c.942 0 1.705.764 1.705 1.706v5.115" stroke="currentColor"/><path stroke-linecap="round" stroke-linejoin="round" stroke-width="1.5" d="m5.18 16.547-.976-.975a.55.55 0 0 1-.161-.39v0c0-.208.118-.399.304-.492l.504-.252a2.274 2.274 0 0 1 2.624.426l1.018 1.018c.426.426.666 1.004.666 1.607v3.606" stroke="currentColor"/></symbol>
<symbol id="heartbeat" fill="none" viewBox="0 0 24 24"><path stroke-linejoin="round" stroke-width="1.5" d="M21.737 8.945a5.793 5.793 0 0 1-1.61 4.022c-2.377 2.463-4.682 5.032-7.148 7.406a1.425 1.425 0 0 1-2.002-.043l-7.103-7.363c-2.147-2.226-2.147-5.819 0-8.044a5.434 5.434 0 0 1 7.868 0L12 5.19l.258-.267a5.465 5.465 0 0 1 3.935-1.686c1.478 0 2.894.608 3.934 1.686a5.793 5.793 0 0 1 1.61 4.022Z" stroke="currentColor"/><path stroke-linecap="round" stroke-linejoin="round" stroke-width="1.5" d="M5.305 11.026h2.069l2.069-3.651 4.138 7.303 2.07-3.652h2.068" stroke="currentColor"/></symbol>
<symbol id="hide" fill="none" viewBox="0 0 24 24"><path stroke-linecap="round" stroke-linejoin="round" stroke-width="1.5" d="m19.5 16-2.475-3.396M12 17.5V14M4.5 16l2.469-3.388M3 8c3.6 8 14.4 8 18 0" stroke="currentColor"/></symbol>
<symbol id="home" fill="none" viewBox="0 0 24 24"><path stroke-linecap="round" stroke-linejoin="round" stroke-width="1.5" d="M10 18v-3a2 2 0 0 1 2-2v0a2 2 0 0 1 2 2v3M2 8l9.732-4.866a.6.6 0 0 1 .536 0L22 8" stroke="currentColor"/><path stroke-linecap="round" stroke-linejoin="round" stroke-width="1.5" d="M20 11v8a2 2 0 0 1-2 2H6a2 2 0 0 1-2-2v-8" stroke="currentColor"/></symbol>
<symbol id="infos" fill="none" viewBox="0 0 28 28"><path d="M14 27a13 13 0 1 0 0-26 13 13 0 0 0 0 26Zm-2.031-8.938h1.219v-3.25h-1.22a1.216 1.216 0 0 1-1.218-1.218c0-.676.543-1.219 1.219-1.219h2.437c.676 0 1.219.543 1.219 1.219v4.469h.406c.676 0 1.219.543 1.219 1.218 0 .676-.543 1.219-1.219 1.219H11.97a1.216 1.216 0 0 1-1.219-1.219c0-.675.543-1.218 1.219-1.218ZM14 7.5a1.625 1.625 0 1 1 0 3.25 1.625 1.625 0 0 1 0-3.25Z" fill="currentColor"/></symbol>
<symbol id="infosLight" fill="none" viewBox="0 0 25 26"><path stroke-linecap="round" stroke-linejoin="round" stroke-width="1.5" d="M12.71 12.583v5.75M12.71 7.994l.011-.013M12.71 24.368c6.278 0 11.368-5.09 11.368-11.368 0-6.279-5.09-11.368-11.369-11.368C6.431 1.632 1.341 6.722 1.341 13c0 6.279 5.09 11.368 11.368 11.368Z" stroke="currentColor"/></symbol>
<symbol id="invoice" fill="none" viewBox="0 0 21 21"><path stroke-linecap="round" stroke-linejoin="round" stroke-width="1.25" d="M14.914 19.704H6.09c-1.078 0-1.952-.862-1.952-1.928V4.662A1.94 1.94 0 0 1 6.09 2.734h5.622l5.153 4.722v10.32c0 1.065-.873 1.928-1.952 1.928h0Z" stroke="currentColor"/><path stroke-miterlimit="10" stroke-width="1.25" d="M16.864 8.189h-4.018c-1.128 0-2.042-.83-2.042-1.856V2.734" stroke="currentColor"/><path d="M11.253 12.226c-.317 0-.578.095-.783.286-.205.19-.337.467-.397.83h1.57v.715h-1.629l-.007.142v.19l.007.134h1.383v.723H10.08c.133.658.55.986 1.251.986.372 0 .728-.077 1.071-.231v1.04c-.3.16-.681.239-1.141.239-.637 0-1.16-.18-1.57-.54-.41-.36-.67-.858-.776-1.494h-.534v-.723h.46a1.556 1.556 0 0 1-.017-.251l.008-.215H8.38v-.715h.518c.096-.654.355-1.173.775-1.553.421-.38.947-.57 1.578-.57.488 0 .945.112 1.371.333l-.382.942a3.987 3.987 0 0 0-.502-.197 1.686 1.686 0 0 0-.487-.071h.002Z" fill="currentColor"/><path stroke-linecap="round" stroke-linejoin="round" stroke-width="1.25" d="M6.562 5.159H8.38M6.562 6.977H8.38" stroke="currentColor"/></symbol>
<symbol id="lock" fill="none" viewBox="0 0 24 24"><path stroke-linecap="round" stroke-linejoin="round" stroke-width="1.5" d="M16 12h1.4a.6.6 0 0 1 .6.6v6.8a.6.6 0 0 1-.6.6H6.6a.6.6 0 0 1-.6-.6v-6.8a.6.6 0 0 1 .6-.6H8m8 0V8c0-1.333-.8-4-4-4S8 6.667 8 8v4m8 0H8" stroke="currentColor"/></symbol>
<symbol id="logout" fill="none" viewBox="0 0 24 24"><path stroke-linecap="round" stroke-linejoin="round" stroke-width="1.5" d="M12 12h7m0 0-3 3m3-3-3-3M19 6V5a2 2 0 0 0-2-2H7a2 2 0 0 0-2 2v14a2 2 0 0 0 2 2h10a2 2 0 0 0 2-2v-1" stroke="currentColor"/></symbol>
<symbol id="mailForward" fill="none" viewBox="0 0 24 24"><path stroke-linecap="round" stroke-linejoin="round" stroke-width="1.5" d="m7 8 5 3 5-3" stroke="currentColor"/><path stroke-linecap="round" stroke-width="1.5" d="M10 20H4a2 2 0 0 1-2-2V6a2 2 0 0 1 2-2h16a2 2 0 0 1 2 2v6.857" stroke="currentColor"/><path stroke-linecap="round" stroke-linejoin="round" stroke-width="1.5" d="M22 17.111h-6.3c-3.6 0-3.6 4.889 0 4.889m6.3-4.889L18.85 14M22 17.111l-3.15 3.111" stroke="currentColor"/></symbol>
<symbol id="mailOut" fill="none" viewBox="0 0 24 24"><path stroke-linecap="round" stroke-linejoin="round" stroke-width="1.5" d="m5 9 4.5 3L14 9" stroke="currentColor"/><path stroke-linecap="round" stroke-width="1.5" d="M17 19H3a2 2 0 0 1-2-2V7a2 2 0 0 1 2-2h13a2 2 0 0 1 2 2v2" stroke="currentColor"/><path stroke-linecap="round" stroke-linejoin="round" stroke-width="1.5" d="M17 14h6m0 0-3-3m3 3-3 3" stroke="currentColor"/></symbol>
<symbol id="misc" fill="none" viewBox="0 0 24 24"><path stroke-width="1.5" d="m5.212 15.111-2.687-2.687a.6.6 0 0 1 0-.848l2.687-2.687a.6.6 0 0 1 .848 0l2.687 2.687a.6.6 0 0 1 0 .848L6.06 15.111a.6.6 0 0 1-.848 0ZM11.576 21.475l-2.687-2.687a.6.6 0 0 1 0-.849l2.687-2.687a.6.6 0 0 1 .848 0l2.687 2.687a.6.6 0 0 1 0 .849l-2.687 2.687a.6.6 0 0 1-.848 0ZM11.576 8.748 8.889 6.06a.6.6 0 0 1 0-.848l2.687-2.687a.6.6 0 0 1 .848 0l2.687 2.687a.6.6 0 0 1 0 .848l-2.687 2.688a.6.6 0 0 1-.848 0ZM17.94 15.111l-2.687-2.687a.6.6 0 0 1 0-.848l2.687-2.687a.6.6 0 0 1 .848 0l2.687 2.687a.6.6 0 0 1 0 .848l-2.687 2.687a.6.6 0 0 1-.848 0Z" stroke="currentColor"/></symbol>
<symbol id="newsletter" fill="none" viewBox="0 0 24 24"><path stroke-linecap="round" stroke-linejoin="round" stroke-width="1.5" d="M6 6h12M6 10h12M13 14h5M13 18h5M2 21.4V2.6a.6.6 0 0 1 .6-.6h18.8a.6.6 0 0 1 .6.6v18.8a.6.6 0 0 1-.6.6H2.6a.6.6 0 0 1-.6-.6Z" stroke="currentColor"/><path stroke-linecap="round" stroke-linejoin="round" stroke-width="1.5" d="M6 18v-4h3v4H6Z" stroke="currentColor"/></symbol>
<symbol id="next" fill="none" viewBox="0 0 24 24"><path stroke-linecap="round" stroke-linejoin="round" stroke-width="1.5" d="M4 14a2 2 0 1 1 0-4 2 2 0 0 1 0 4ZM9 12h13m0 0-3-3m3 3-3 3" stroke="currentColor"/></symbol>
<symbol id="password" fill="none" viewBox="0 0 24 24"><path stroke-linecap="round" stroke-linejoin="round" stroke-width="1.5" d="M10 12a4 4 0 1 1-8 0 4 4 0 0 1 8 0Zm0 0h12v3M18 12v3" stroke="currentColor"/></symbol>
<symbol id="percentage" fill="none" viewBox="0 0 17 16"><path stroke-linecap="round" stroke-linejoin="round" stroke-width="1.25" d="m4.741 14.28 7.393-12.727M3.715 8.143c1.54 0 2.79-1.61 2.79-3.598 0-1.987-1.25-3.598-2.79-3.598-1.541 0-2.79 1.61-2.79 3.598 0 1.987 1.249 3.598 2.79 3.598ZM13.287 14.886c1.54 0 2.79-1.61 2.79-3.598 0-1.988-1.25-3.599-2.79-3.599s-2.79 1.611-2.79 3.599c0 1.987 1.25 3.598 2.79 3.598Z" stroke="currentColor"/></symbol>
<symbol id="phone" fill="none" viewBox="0 0 24 24"><path stroke-linecap="round" stroke-linejoin="round" stroke-width="1.5" d="M18.118 14.702 14 15.5c-2.782-1.396-4.5-3-5.5-5.5l.77-4.13L7.814 2h-3.75c-1.128 0-2.016.932-1.848 2.047.42 2.783 1.66 7.83 5.284 11.453 3.805 3.805 9.286 5.456 12.302 6.113 1.165.253 2.198-.655 2.198-1.848v-3.584l-3.882-1.479Z" stroke="currentColor"/></symbol>
<symbol id="phoneAdd" fill="none" viewBox="0 0 24 24"><path stroke-linecap="round" stroke-linejoin="round" stroke-width="1.5" d="M18.118 14.702 14 15.5c-2.782-1.396-4.5-3-5.5-5.5l.77-4.13L7.814 2h-3.75c-1.128 0-2.016.932-1.848 2.047.42 2.783 1.66 7.83 5.284 11.453 3.805 3.805 9.286 5.456 12.302 6.113 1.165.253 2.198-.655 2.198-1.848v-3.584l-3.882-1.479Z" stroke="currentColor"/><path stroke-linecap="round" stroke-linejoin="round" stroke-width="1.5" d="M18.667 10h-3.334V7.667H13V4.333h2.333V2h3.334v2.333H21v3.334h-2.333V10Z" stroke="currentColor"/></symbol>
<symbol id="piece" fill="none" viewBox="0 0 20 20"><path stroke-linecap="round" stroke-linejoin="round" stroke-width="1.254" d="M3.317 11.597v3.555c0 .267.217.484.485.484h4.362M15.435 11.597v3.555a.485.485 0 0 1-.485.484h-3.554M11.396 4.327h3.554c.268 0 .485.217.485.484v3.555M3.317 8.366V4.81c0-.267.217-.484.485-.484h4.362M11.395 15.636v.808a1.616 1.616 0 1 1-3.23 0v-.807M3.317 8.366h.808a1.616 1.616 0 1 1 0 3.231h-.808M15.435 8.366h.807a1.616 1.616 0 1 1 0 3.231h-.807M11.395 4.327v-.808a1.616 1.616 0 1 0-3.23 0v.808" stroke="currentColor"/></symbol>
<symbol id="pin" fill="none" viewBox="0 0 24 24"><path stroke-width="1.5" d="M20 10c0 4.418-8 12-8 12s-8-7.582-8-12a8 8 0 1 1 16 0Z" stroke="currentColor"/><path stroke-linecap="round" stroke-linejoin="round" stroke-width="1.5" d="M12 11a1 1 0 1 0 0-2 1 1 0 0 0 0 2Z" fill="currentColor" stroke="currentColor"/></symbol>
<symbol id="plusFrame" fill="none" viewBox="0 0 24 24"><path stroke-linecap="round" stroke-linejoin="round" stroke-width="1.5" d="m20.777 13.345-7.297 8.027a2 2 0 0 1-2.96 0l-7.297-8.027a2 2 0 0 1 0-2.69l7.297-8.027a2 2 0 0 1 2.96 0l7.297 8.027a2 2 0 0 1 0 2.69ZM9 12h3m3 0h-3m0 0V9m0 3v3" stroke="currentColor"/></symbol>
<symbol id="plusStack" fill="none" viewBox="0 0 24 24"><path stroke-linecap="round" stroke-linejoin="round" stroke-width="1.5" d="M2 12h3m3 0H5m0 0V9m0 3v3M6.25 6l.245-.28a2 2 0 0 1 3.01 0l4.343 4.963a2 2 0 0 1 0 2.634L9.505 18.28a2 2 0 0 1-3.01 0L6.25 18" stroke="currentColor"/><path stroke-linecap="round" stroke-linejoin="round" stroke-width="1.5" d="m13 19 4.884-5.698a2 2 0 0 0 0-2.604L13 5" stroke="currentColor"/><path stroke-linecap="round" stroke-linejoin="round" stroke-width="1.5" d="m17 19 4.884-5.698a2 2 0 0 0 0-2.604L17 5" stroke="currentColor"/></symbol>
<symbol id="podium" fill="none" viewBox="0 0 24 24"><path stroke-linecap="round" stroke-linejoin="round" stroke-width="1.5" d="M15 21H9v-8.4a.6.6 0 0 1 .6-.6h4.8a.6.6 0 0 1 .6.6V21ZM20.4 21H15v-2.9a.6.6 0 0 1 .6-.6h4.8a.6.6 0 0 1 .6.6v2.3a.6.6 0 0 1-.6.6ZM9 21v-4.9a.6.6 0 0 0-.6-.6H3.6a.6.6 0 0 0-.6.6v4.3a.6.6 0 0 0 .6.6H9ZM10.806 5.113l.909-1.927a.312.312 0 0 1 .57 0l.91 1.927 2.032.311c.261.04.365.376.176.568l-1.47 1.5.347 2.118c.044.272-.228.48-.462.351l-1.818-1-1.818 1c-.233.128-.506-.079-.462-.351l.347-2.118-1.47-1.5c-.19-.192-.085-.528.175-.568l2.034-.31Z" stroke="currentColor"/></symbol>
<symbol id="prev" fill="none" viewBox="0 0 24 24"><path stroke-linecap="round" stroke-linejoin="round" stroke-width="1.5" d="M20 10a2 2 0 1 1 0 4 2 2 0 0 1 0-4ZM15 12H2m0 0 3 3m-3-3 3-3" stroke="currentColor"/></symbol>
<symbol id="question" fill="none" viewBox="0 0 24 24"><path stroke-linecap="round" stroke-linejoin="round" stroke-width="1.5" d="M9 9c0-3.5 5.5-3.5 5.5 0 0 2.5-2.5 2-2.5 5M12 18.01l.01-.011" stroke="currentColor"/><path stroke-linecap="round" stroke-linejoin="round" stroke-width="1.5" d="M5 18 3.13 4.913a.996.996 0 0 1 .774-1.114l7.662-1.703a2 2 0 0 1 .868 0L20.096 3.8c.51.113.848.596.774 1.114L19 18c-.07.495-.5 3.5-7 3.5S5.07 18.495 5 18Z" stroke="currentColor"/></symbol>
<symbol id="replace" fill="none" viewBox="0 0 24 24"><path stroke-linecap="round" stroke-linejoin="round" stroke-width="1.5" d="M2 19h6m0 0-3-3m3 3-3 3M7 2h9.5L21 6.5V19" stroke="currentColor"/><path stroke-linecap="round" stroke-linejoin="round" stroke-width="1.5" d="M11 22h5.5a1.5 1.5 0 0 0 1.5-1.5V8.749a.6.6 0 0 0-.176-.425l-3.148-3.148A.6.6 0 0 0 14.25 5H4.5A1.5 1.5 0 0 0 3 6.5V13" stroke="currentColor"/><path stroke-linecap="round" stroke-linejoin="round" stroke-width="1.5" d="M14 5v3.4a.6.6 0 0 0 .6.6H18" stroke="currentColor"/></symbol>
<symbol id="reset" fill="none" viewBox="0 0 24 24"><path stroke-linecap="round" stroke-linejoin="round" stroke-width="1.5" d="M21.168 8A10.003 10.003 0 0 0 12 2C6.815 2 2.55 5.947 2.05 11" stroke="currentColor"/><path stroke-linecap="round" stroke-linejoin="round" stroke-width="1.5" d="M17 8h4.4a.6.6 0 0 0 .6-.6V3M2.881 16c1.544 3.532 5.068 6 9.168 6 5.186 0 9.45-3.947 9.951-9" stroke="currentColor"/><path stroke-linecap="round" stroke-linejoin="round" stroke-width="1.5" d="M7.05 16h-4.4a.6.6 0 0 0-.6.6V21" stroke="currentColor"/></symbol>
<symbol id="rights" fill="none" viewBox="0 0 24 24"><path stroke-width="1.5" d="M11.607 2.342a.6.6 0 0 1 .787 0l1.948 1.692a.6.6 0 0 0 .445.145l2.572-.224a.6.6 0 0 1 .636.463l.582 2.514a.6.6 0 0 0 .275.38l2.212 1.33a.6.6 0 0 1 .243.748l-1.008 2.376a.6.6 0 0 0 0 .468l1.008 2.376a.6.6 0 0 1-.243.749l-2.212 1.33a.6.6 0 0 0-.275.379l-.582 2.514a.6.6 0 0 1-.636.463l-2.572-.224a.6.6 0 0 0-.445.144l-1.949 1.693a.6.6 0 0 1-.787 0l-1.948-1.693a.6.6 0 0 0-.445-.144l-2.572.224a.6.6 0 0 1-.636-.463l-.582-2.514a.6.6 0 0 0-.275-.38l-2.212-1.33a.6.6 0 0 1-.243-.748l1.008-2.376a.6.6 0 0 0 0-.468L2.693 9.39a.6.6 0 0 1 .243-.749l2.212-1.33a.6.6 0 0 0 .275-.379l.582-2.514a.6.6 0 0 1 .636-.463l2.572.224a.6.6 0 0 0 .445-.145l1.949-1.692Z" stroke="currentColor"/><path stroke-linecap="round" stroke-linejoin="round" stroke-width="1.5" d="m9 13 2 2 5-5" stroke="currentColor"/></symbol>
<symbol id="save" fill="none" viewBox="0 0 24 24"><path stroke-linecap="round" stroke-linejoin="round" stroke-width="1.5" d="M12 22v-9m0 0 3.5 3.5M12 13l-3.5 3.5M20 17.607c1.494-.585 3-1.918 3-4.607 0-4-3.333-5-5-5 0-2 0-6-6-6S6 6 6 8c-1.667 0-5 1-5 5 0 2.689 1.506 4.022 3 4.607" stroke="currentColor"/></symbol>
<symbol id="saveDb" fill="none" viewBox="0 0 24 24"><path stroke-linecap="round" stroke-linejoin="round" stroke-width="1.5" d="M4 6v6s0 3 7 3 7-3 7-3V6" stroke="currentColor"/><path stroke-linecap="round" stroke-linejoin="round" stroke-width="1.5" d="M11 3c7 0 7 3 7 3s0 3-7 3-7-3-7-3 0-3 7-3ZM11 21c-7 0-7-3-7-3v-6M19 22v-6m0 0 3 3m-3-3-3 3" stroke="currentColor"/></symbol>
<symbol id="send" fill="none" viewBox="0 0 24 24"><path stroke-linecap="round" stroke-linejoin="round" stroke-width="1.5" d="m4.031 8.917 15.477-4.334a.5.5 0 0 1 .616.617l-4.333 15.476a.5.5 0 0 1-.94.067l-3.248-7.382a.5.5 0 0 0-.256-.257L3.965 9.856a.5.5 0 0 1 .066-.94Z" stroke="currentColor"/></symbol>
<symbol id="seo" fill="none" viewBox="0 0 24 24"><path stroke-linecap="round" stroke-linejoin="round" stroke-width="1.5" d="M9 6h11M5 18.01l.01-.011M5 12.01l.01-.011M3.8 5.8l.8.8 2-2M9 12h11M9 18h11" stroke="currentColor"/></symbol>
<symbol id="settings" fill="none" viewBox="0 0 24 24"><path stroke-linecap="round" stroke-linejoin="round" stroke-width="1.5" d="M12 15a3 3 0 1 0 0-6 3 3 0 0 0 0 6Z" stroke="currentColor"/><path stroke-linecap="round" stroke-linejoin="round" stroke-width="1.5" d="m19.622 10.395-1.097-2.65L20 6l-2-2-1.735 1.483-2.707-1.113L12.935 2h-1.954l-.632 2.401-2.645 1.115L6 4 4 6l1.453 1.789-1.08 2.657L2 11v2l2.401.655L5.516 16.3 4 18l2 2 1.791-1.46 2.606 1.072L11 22h2l.604-2.387 2.651-1.098C16.697 18.831 18 20 18 20l2-2-1.484-1.75 1.098-2.652 2.386-.62V11l-2.378-.605Z" stroke="currentColor"/></symbol>
<symbol id="show" fill="none" viewBox="0 0 24 24"><path stroke-linecap="round" stroke-linejoin="round" stroke-width="1.5" d="M3 13c3.6-8 14.4-8 18 0" stroke="currentColor"/><path stroke-linecap="round" stroke-linejoin="round" stroke-width="1.5" d="M12 17a3 3 0 1 1 0-6 3 3 0 0 1 0 6Z" stroke="currentColor"/></symbol>
<symbol id="starBright" fill="none" viewBox="0 0 24 24"><path stroke-linecap="round" stroke-linejoin="round" stroke-width="1.5" d="m9.884 9.543 1.61-3.415a.553.553 0 0 1 1.011 0l1.61 3.415 3.603.551c.462.07.646.665.312 1.007l-2.606 2.656.615 3.753c.079.482-.405.85-.818.622L12 16.359l-3.221 1.773c-.414.227-.897-.14-.818-.622l.615-3.753-2.606-2.656c-.335-.342-.15-.936.312-1.007l3.602-.55ZM22.334 12h1.034M12 1.665V.632M12 23.368v-1.033M20.268 20.268l-1.034-1.033M20.268 3.732l-1.034 1.033M3.732 20.268l1.034-1.033M3.732 3.732l1.034 1.033M.63 12h1.034" stroke="currentColor"/></symbol>
<symbol id="start" fill="none" viewBox="0 0 24 24"><path stroke-linecap="round" stroke-linejoin="round" stroke-width="1.5" d="M16.061 10.404 14 17h-4l-2.061-6.596a6 6 0 0 1 .998-5.484l2.59-3.315a.6.6 0 0 1 .946 0l2.59 3.315a6 6 0 0 1 .998 5.484ZM10 20c0 2 2 3 2 3s2-1 2-3M8.5 12.5C5 15 7 19 7 19l3-2M15.932 12.5c3.5 2.5 1.5 6.5 1.5 6.5l-3-2" stroke="currentColor"/><path stroke-linecap="round" stroke-linejoin="round" stroke-width="1.5" d="M12 11a2 2 0 1 1 0-4 2 2 0 0 1 0 4Z" stroke="currentColor"/></symbol>
<symbol id="tab" fill="none" viewBox="0 0 24 24"><path stroke-linecap="round" stroke-linejoin="round" stroke-width="1.5" d="M22 8h-6.5M9 4v4h6.5m0 0V4" stroke="currentColor"/><path stroke-width="1.5" d="M2 17.714V6.286C2 5.023 2.995 4 4.222 4h15.556C21.005 4 22 5.023 22 6.286v11.428C22 18.977 21.005 20 19.778 20H4.222C2.995 20 2 18.977 2 17.714Z" stroke="currentColor"/></symbol>
<symbol id="tree" fill="none" viewBox="0 0 24 24"><path stroke-linecap="round" stroke-linejoin="round" stroke-width="1.5" d="M3 5h8M3 12h13M3 19h18" stroke="currentColor"/></symbol>
<symbol id="treeAdd" fill="none" viewBox="0 0 24 24"><path stroke-linecap="round" stroke-linejoin="round" stroke-width="1.5" d="M6 6H4M2 6h2m0 0v2m0-2V4M22 13h-8M22 7H10M22 19h-8" stroke="currentColor"/></symbol>
<symbol id="treeExpand" fill="none" viewBox="0 0 24 24"><path stroke-linecap="round" stroke-linejoin="round" stroke-width="1.5" d="M9 10h9M12 15h9M14 20h9M4 5h11M4 10v10m0 0-3-3m3 3 3-3" stroke="currentColor"/></symbol>
<symbol id="treeReduce" fill="none" viewBox="0 0 24 24"><path stroke-linecap="round" stroke-linejoin="round" stroke-width="1.5" d="M9 10h9M12 15h9M14 20h9M4 5h11M4 20V10m0 0-3 3m3-3 3 3" stroke="currentColor"/></symbol>
<symbol id="user" fill="none" viewBox="0 0 24 24"><path stroke-linecap="round" stroke-linejoin="round" stroke-width="1.5" d="M5 20v-1a7 7 0 0 1 7-7v0a7 7 0 0 1 7 7v1M12 12a4 4 0 1 0 0-8 4 4 0 0 0 0 8Z" stroke="currentColor"/></symbol>
<symbol id="userAdd" fill="none" viewBox="0 0 24 24"><path stroke-linecap="round" stroke-linejoin="round" stroke-width="1.5" d="M17 10h3m3 0h-3m0 0V7m0 3v3M1 20v-1a7 7 0 0 1 7-7v0a7 7 0 0 1 7 7v1M8 12a4 4 0 1 0 0-8 4 4 0 0 0 0 8Z" stroke="currentColor"/></symbol>
<symbol id="userGroup" fill="none" viewBox="0 0 24 24"><path stroke-linecap="round" stroke-width="1.5" d="M1 20v-1a7 7 0 0 1 7-7v0a7 7 0 0 1 7 7v1" stroke="currentColor"/><path stroke-linecap="round" stroke-width="1.5" d="M13 14v0a5 5 0 0 1 5-5v0a5 5 0 0 1 5 5v.5" stroke="currentColor"/><path stroke-linecap="round" stroke-linejoin="round" stroke-width="1.5" d="M8 12a4 4 0 1 0 0-8 4 4 0 0 0 0 8ZM18 9a3 3 0 1 0 0-6 3 3 0 0 0 0 6Z" stroke="currentColor"/></symbol>
<symbol id="userHome" fill="none" viewBox="0 0 24 24"><path stroke-linecap="round" stroke-linejoin="round" stroke-width="1.5" d="m1.262 8.294 10.737-6.216 10.736 6.216" stroke="currentColor"/><path stroke-width="1.5" d="M6.348 21.29v-1.13a5.651 5.651 0 0 1 11.302 0v1.13" stroke="currentColor"/><path stroke-linecap="round" stroke-linejoin="round" stroke-width="1.5" d="M12 14.51a3.39 3.39 0 1 0 0-6.781 3.39 3.39 0 0 0 0 6.78Z" stroke="currentColor"/></symbol>
<symbol id="userRights" fill="none" viewBox="0 0 24 24"><path fill-rule="evenodd" d="M9 12.75A6.25 6.25 0 0 0 2.75 19v1a.75.75 0 0 1-1.5 0v-1A7.75 7.75 0 0 1 9 11.25v1.5ZM15.25 11.809a2.368 2.368 0 0 1 3.5 0 .868.868 0 0 0 .683.282 2.368 2.368 0 0 1 2.476 2.476.868.868 0 0 0 .282.682 2.368 2.368 0 0 1 0 3.502.868.868 0 0 0-.282.682 2.368 2.368 0 0 1-2.476 2.476.868.868 0 0 0-.682.283 2.368 2.368 0 0 1-3.502 0 .868.868 0 0 0-.682-.283 2.368 2.368 0 0 1-2.476-2.476.868.868 0 0 0-.282-.682 2.368 2.368 0 0 1 0-3.502.868.868 0 0 0 .282-.682 2.368 2.368 0 0 1 2.476-2.476.868.868 0 0 0 .682-.282Zm2.392 1.01a.868.868 0 0 0-1.284 0 2.368 2.368 0 0 1-1.861.77.868.868 0 0 0-.908.908 2.368 2.368 0 0 1-.77 1.861.868.868 0 0 0 0 1.284c.52.474.803 1.157.77 1.861a.868.868 0 0 0 .908.907 2.368 2.368 0 0 1 1.861.771.868.868 0 0 0 1.284 0 2.368 2.368 0 0 1 1.86-.77.868.868 0 0 0 .909-.908 2.368 2.368 0 0 1 .77-1.861.868.868 0 0 0 0-1.284 2.368 2.368 0 0 1-.77-1.861.868.868 0 0 0-.908-.908 2.368 2.368 0 0 1-1.861-.77Z" clip-rule="evenodd" fill="currentColor"/><path fill-rule="evenodd" d="M14.833 16.47a.75.75 0 0 1 1.06 0l.561.56 1.652-1.651a.75.75 0 0 1 1.06 1.06l-2.181 2.182a.75.75 0 0 1-1.061 0l-1.09-1.09a.75.75 0 0 1 0-1.061ZM9 4.75a3.25 3.25 0 1 0 0 6.5 3.25 3.25 0 0 0 0-6.5ZM4.25 8a4.75 4.75 0 1 1 9.5 0 4.75 4.75 0 0 1-9.5 0Z" clip-rule="evenodd" fill="currentColor"/></symbol>
<symbol id="userStar" fill="none" viewBox="0 0 24 24"><path stroke-linecap="round" stroke-linejoin="round" stroke-width="1.5" d="M12 12a4 4 0 1 0 0-8 4 4 0 0 0 0 8Z" stroke="currentColor"/><path stroke-linecap="round" stroke-linejoin="round" stroke-width="1.5" d="M5 20v-1a7 7 0 0 1 10-6.326M16.635 16.415l1.039-2.203a.357.357 0 0 1 .652 0l1.04 2.203 2.323.356c.298.045.416.429.2.649l-1.68 1.713.396 2.421c.051.311-.26.548-.527.401L18 20.812l-2.078 1.143c-.267.147-.578-.09-.527-.4l.396-2.422-1.68-1.713c-.216-.22-.098-.604.2-.65l2.324-.355Z" stroke="currentColor"/></symbol>
<symbol id="users" fill="none" viewBox="0 0 24 24"><path stroke-linecap="round" stroke-linejoin="round" stroke-width="1.5" d="M7 18v-1a5 5 0 0 1 5-5v0a5 5 0 0 1 5 5v1M1 18v-1a3 3 0 0 1 3-3v0M23 18v-1a3 3 0 0 0-3-3v0M12 12a3 3 0 1 0 0-6 3 3 0 0 0 0 6ZM4 14a2 2 0 1 0 0-4 2 2 0 0 0 0 4ZM20 14a2 2 0 1 0 0-4 2 2 0 0 0 0 4Z" stroke="currentColor"/></symbol>
<symbol id="valid" fill="none" viewBox="0 0 24 24"><path stroke-linecap="round" stroke-linejoin="round" stroke-width="1.5" d="m7 12.5 3 3 7-7" stroke="currentColor"/><path stroke-linecap="round" stroke-linejoin="round" stroke-width="1.5" d="M12 22c5.523 0 10-4.477 10-10S17.523 2 12 2 2 6.477 2 12s4.477 10 10 10Z" stroke="currentColor"/></symbol>
<symbol id="validate" fill="none" viewBox="0 0 24 24"><path stroke-linecap="round" stroke-linejoin="round" stroke-width="1.5" d="M7 22h10" stroke="currentColor"/><path stroke-width="1.5" d="M2 17V4a2 2 0 0 1 2-2h16a2 2 0 0 1 2 2v13a2 2 0 0 1-2 2H4a2 2 0 0 1-2-2Z" stroke="currentColor"/><path stroke-linecap="round" stroke-linejoin="round" stroke-width="1.5" d="m9 10.5 2 2 4-4" stroke="currentColor"/></symbol>
<symbol id="watch" fill="none" viewBox="0 0 20 21"><path d="M9.998 5.526c-1.992 0-3.63.925-4.885 2.116a11.124 11.124 0 0 0-2.405 3.384 11.16 11.16 0 0 0 2.402 3.385c1.258 1.19 2.896 2.115 4.888 2.115 1.993 0 3.63-.925 4.886-2.115a11.122 11.122 0 0 0 2.405-3.385 11.16 11.16 0 0 0-2.402-3.384c-1.258-1.19-2.896-2.116-4.889-2.116Zm-5.885 1.02c1.44-1.37 3.417-2.52 5.885-2.52 2.47 0 4.446 1.15 5.886 2.52 1.43 1.358 2.386 2.98 2.841 4.096.101.247.101.522 0 .769-.455 1.115-1.412 2.74-2.842 4.097-1.439 1.368-3.416 2.518-5.885 2.518-2.468 0-4.445-1.15-5.885-2.518-1.43-1.357-2.386-2.982-2.838-4.097-.101-.247-.101-.522 0-.769.452-1.116 1.408-2.74 2.838-4.097Zm5.885 6.98c1.351 0 2.445-1.118 2.445-2.5 0-1.38-1.094-2.5-2.445-2.5h-.06c.04.16.06.328.06.5 0 1.104-.876 2-1.955 2-.168 0-.333-.021-.489-.062v.062c0 1.382 1.094 2.5 2.444 2.5Zm0-6.5c1.038 0 2.033.422 2.766 1.172a4.047 4.047 0 0 1 1.146 2.828c0 1.061-.412 2.079-1.146 2.829a3.868 3.868 0 0 1-2.766 1.171 3.868 3.868 0 0 1-2.765-1.171 4.047 4.047 0 0 1-1.146-2.829c0-1.06.412-2.078 1.146-2.828a3.868 3.868 0 0 1 2.765-1.172Z" fill="currentColor"/></symbol>
</svg>