<svg xmlns="http://www.w3.org/2000/svg" style="display: none;">
<symbol id="add" fill="none" viewBox="0 0 18 18"><path stroke-linecap="round" stroke-linejoin="round" stroke-width="1.28" d="M6.667 9H9m0 0h2.333M9 9V6.667M9 9v2.333M16 2.467v13.066a.467.467 0 0 1-.467.467H2.467A.467.467 0 0 1 2 15.533V2.467C2 2.209 2.209 2 2.467 2h13.066c.258 0 .467.209.467.467Z" stroke="currentColor"/></symbol>
<symbol id="calendar" fill="none" viewBox="0 0 24 24"><path stroke-linecap="round" stroke-linejoin="round" stroke-width="1.5" d="M15 4V2m0 2v2m0-2h-4.5M3 10v9a2 2 0 0 0 2 2h14a2 2 0 0 0 2-2v-9H3ZM3 10V6a2 2 0 0 1 2-2h2M7 2v4M21 10V6a2 2 0 0 0-2-2h-.5" stroke="currentColor"/></symbol>
<symbol id="chevron" fill="none" viewBox="0 0 25 25"><path d="M13.602 12.185 9.187 7.771a.892.892 0 0 1 1.261-1.261l5.045 5.045a.892.892 0 0 1 0 1.26l-5.045 5.046a.892.892 0 0 1-1.26-1.261l4.414-4.415Z" fill="currentColor"/></symbol>
<symbol id="close" fill="none" viewBox="0 0 13 13"><path stroke-linecap="round" stroke-linejoin="round" stroke-width="1.28" d="m2 12 5-5m0 0 5-5M7 7 2 2m5 5 5 5" stroke="currentColor"/></symbol>
<symbol id="composer" fill="none" viewBox="0 0 24 24"><path stroke-linecap="round" stroke-linejoin="round" stroke-width="1.5" d="M5 3h14a2 2 0 0 1 2 2v14a2 2 0 0 1-2 2H5a2 2 0 0 1-2-2V5a2 2 0 0 1 2-2Z" stroke="currentColor"/><path stroke-linecap="round" stroke-linejoin="round" stroke-width="1.5" d="M13.6 6h3.8a.6.6 0 0 1 .6.6v10.8a.6.6 0 0 1-.6.6h-3.8a.6.6 0 0 1-.6-.6V6.6a.6.6 0 0 1 .6-.6ZM6.6 6h3.8a.6.6 0 0 1 .6.6v6.8a.6.6 0 0 1-.6.6H6.6a.6.6 0 0 1-.6-.6V6.6a.6.6 0 0 1 .6-.6Z" stroke="currentColor"/></symbol>
<symbol id="content" fill="none" viewBox="0 0 24 24"><path stroke-linecap="round" stroke-linejoin="round" stroke-width="1.5" d="m7.99 2.038 5.489 5.394m0 0 2.35 8.331-8.37-2.205m6.02-6.126s-1.614.11-2.271.779c-.657.668-.74 2.284-.74 2.284s-1.613.11-2.27.779c-.658.669-.74 2.284-.74 2.284m0 0L1.97 8.164m17.557-3.822c4.23 4.157 4.288 10.955.132 15.184-4.157 4.23-10.955 4.288-15.184.132C.244 15.5.186 8.703 4.342 4.474 8.5.244 15.297.186 19.526 4.342Z" stroke="currentColor"/></symbol>
<symbol id="delete" fill="none" viewBox="0 0 24 24"><path stroke-linecap="round" stroke-linejoin="round" stroke-width="1.5" d="m20 9-1.995 11.346A2 2 0 0 1 16.035 22h-8.07a2 2 0 0 1-1.97-1.654L4 9M21 6h-5.625M3 6h5.625m0 0V4a2 2 0 0 1 2-2h2.75a2 2 0 0 1 2 2v2m-6.75 0h6.75" stroke="currentColor"/></symbol>
<symbol id="docs" fill="none" viewBox="0 0 24 24"><path stroke-linecap="round" stroke-linejoin="round" stroke-width="1.5" d="M6.631 18.442h7.516M6.631 14.148h1.074M6.631 9.853h3.221M6.631 1.263h10.2l4.832 4.832v13.42" stroke="currentColor"/><path stroke-linecap="round" stroke-linejoin="round" stroke-width="1.5" d="M2.337 21.126V6.095c0-.89.721-1.61 1.61-1.61h10.47c.171 0 .335.067.456.188l3.38 3.38c.121.121.19.285.19.456v12.617c0 .89-.722 1.61-1.611 1.61H3.947a1.61 1.61 0 0 1-1.61-1.61Z" stroke="currentColor"/><path stroke-linecap="round" stroke-linejoin="round" stroke-width="1.5" d="M14.148 4.484v3.65c0 .356.288.645.644.645h3.65" stroke="currentColor"/></symbol>
<symbol id="dots" fill="none" viewBox="0 0 24 24"><path stroke-linecap="round" stroke-linejoin="round" stroke-width="1.5" d="M12 6a.5.5 0 1 0 0-1 .5.5 0 0 0 0 1ZM12 12.5a.5.5 0 1 0 0-1 .5.5 0 0 0 0 1ZM12 19a.5.5 0 1 0 0-1 .5.5 0 0 0 0 1Z" fill="currentColor" stroke="currentColor"/></symbol>
<symbol id="download" fill="none" viewBox="0 0 24 24"><path stroke-linecap="round" stroke-linejoin="round" stroke-width="1.5" d="M12 13v9m0 0 3.5-3.5M12 22l-3.5-3.5M20 17.607c1.494-.585 3-1.918 3-4.607 0-4-3.333-5-5-5 0-2 0-6-6-6S6 6 6 8c-1.667 0-5 1-5 5 0 2.689 1.506 4.022 3 4.607" stroke="currentColor"/></symbol>
<symbol id="drag" fill="none" viewBox="0 0 24 24"><path stroke-linecap="round" stroke-linejoin="round" stroke-width="1.5" d="M12 12 4 4m0 0v4m0-4h4M12 12l8-8m0 0v4m0-4h-4M12 12l-8 8m0 0v-4m0 4h4M12 12l8 8m0 0v-4m0 4h-4" stroke="currentColor"/></symbol>
<symbol id="edit" fill="none" viewBox="0 0 24 24"><path stroke-linecap="round" stroke-linejoin="round" stroke-width="1.5" d="m14.363 5.652 1.48-1.48a2 2 0 0 1 2.829 0l1.414 1.414a2 2 0 0 1 0 2.828l-1.48 1.48m-4.243-4.242-9.616 9.615a2 2 0 0 0-.578 1.238l-.242 2.74a1 1 0 0 0 1.084 1.085l2.74-.242a2 2 0 0 0 1.24-.578l9.615-9.616m-4.243-4.242 4.243 4.242" stroke="currentColor"/></symbol>
<symbol id="editPage" fill="none" viewBox="0 0 24 24"><path stroke-linecap="round" stroke-linejoin="round" stroke-width="1.5" d="M20 12V5.749a.6.6 0 0 0-.176-.425l-3.148-3.148A.6.6 0 0 0 16.252 2H4.6a.6.6 0 0 0-.6.6v18.8a.6.6 0 0 0 .6.6H11M8 10h8M8 6h4m-4 8h3M17.954 16.94l1-1a1.121 1.121 0 0 1 1.586 0v0a1.121 1.121 0 0 1 0 1.585l-1 1m-1.586-1.586-2.99 2.991a1 1 0 0 0-.282.553l-.242 1.557 1.556-.243a1 1 0 0 0 .553-.28l2.991-2.992m-1.586-1.586 1.586 1.586" stroke="currentColor"/><path stroke-linecap="round" stroke-linejoin="round" stroke-width="1.5" d="M16 2v3.4a.6.6 0 0 0 .6.6H20" stroke="currentColor"/></symbol>
<symbol id="email" fill="none" viewBox="0 0 24 24"><path stroke-linecap="round" stroke-linejoin="round" stroke-width="1.5" d="M17.5 19.125A9 9 0 1 1 21 12c0 5.5-6 5.5-6 2V8" stroke="currentColor"/><path stroke-linecap="round" stroke-linejoin="round" stroke-width="1.5" d="M15 12v-1.5C15 9.12 13.657 8 12 8s-3 1.12-3 2.5V12M15 12v1.5c0 1.38-1.343 2.5-3 2.5s-3-1.12-3-2.5V12" stroke="currentColor"/></symbol>
<symbol id="events" fill="none" viewBox="0 0 24 24"><path stroke-linecap="round" stroke-linejoin="round" stroke-width="1.5" d="M22.737 12c0 5.93-4.807 10.737-10.737 10.737S1.263 17.93 1.263 12 6.07 1.263 12 1.263" stroke="currentColor"/><path stroke-linejoin="round" stroke-width="1.5" d="M13.074 6.095c3.364 0 4.831-1.416 4.831-4.832 0 3.416 1.457 4.832 4.832 4.832-3.375 0-4.832 1.456-4.832 4.831 0-3.375-1.467-4.831-4.831-4.831Z" stroke="currentColor"/></symbol>
<symbol id="filter" fill="none" viewBox="0 0 24 24"><path stroke-linecap="round" stroke-linejoin="round" stroke-width="1.5" d="M4 3h16a1 1 0 0 1 1 1v1.586a1 1 0 0 1-.293.707l-6.415 6.414a1 1 0 0 0-.292.707v6.305a1 1 0 0 1-1.243.97l-2-.5a1 1 0 0 1-.757-.97v-5.805a1 1 0 0 0-.293-.707L3.292 6.293A1 1 0 0 1 3 5.586V4a1 1 0 0 1 1-1Z" stroke="currentColor"/></symbol>
<symbol id="generetePdf" fill="none" viewBox="0 0 24 24"><path stroke-linecap="round" stroke-linejoin="round" stroke-width="1.5" d="M20 13V5.749a.6.6 0 0 0-.176-.425l-3.148-3.148A.6.6 0 0 0 16.252 2H4.6a.6.6 0 0 0-.6.6v18.8a.6.6 0 0 0 .6.6H14" stroke="currentColor"/><path stroke-linecap="round" stroke-linejoin="round" stroke-width="1.5" d="M16 2v3.4a.6.6 0 0 0 .6.6H20M16 19h6m0 0-3-3m3 3-3 3" stroke="currentColor"/><path d="M14.88 9.266v6h-.758v-6h.758Zm2.024 2.699v.65h-2.168v-.65h2.168Zm.342-2.7v.652h-2.51v-.651h2.51ZM11.504 15.266h-1.022l.009-.647h1.013c.36 0 .653-.069.878-.206.225-.14.392-.347.499-.619.107-.274.16-.614.16-1.017V11.75c0-.32-.03-.594-.09-.825-.06-.23-.151-.42-.272-.568a1.085 1.085 0 0 0-.458-.33 1.724 1.724 0 0 0-.646-.111h-1.113v-.651h1.113c.337 0 .642.053.914.16.272.105.506.263.7.474.196.209.344.469.446.78.104.31.156.67.156 1.079v1.018c0 .409-.052.769-.156 1.08-.102.31-.252.57-.45.778a1.908 1.908 0 0 1-.72.474c-.28.104-.6.157-.96.157Zm-.601-6v6h-.758v-6h.758ZM8.22 12.913H6.908v-.647h1.31c.247 0 .447-.05.598-.149a.84.84 0 0 0 .334-.412c.071-.176.107-.376.107-.601 0-.206-.036-.4-.107-.581a.928.928 0 0 0-.334-.437c-.151-.113-.35-.17-.598-.17H7.065v5.35h-.758v-6H8.22c.388 0 .715.078.981.235.266.156.468.373.606.65.14.275.21.59.21.944 0 .385-.07.713-.21.985a1.41 1.41 0 0 1-.606.622c-.266.14-.593.21-.98.21Z" fill="currentColor"/></symbol>
<symbol id="hide" fill="none" viewBox="0 0 24 24"><path stroke-linecap="round" stroke-linejoin="round" stroke-width="1.5" d="m19.5 16-2.475-3.396M12 17.5V14M4.5 16l2.469-3.388M3 8c3.6 8 14.4 8 18 0" stroke="currentColor"/></symbol>
<symbol id="home" fill="none" viewBox="0 0 24 24"><path stroke-linecap="round" stroke-linejoin="round" stroke-width="1.5" d="M10 18v-3a2 2 0 0 1 2-2v0a2 2 0 0 1 2 2v3M2 8l9.732-4.866a.6.6 0 0 1 .536 0L22 8" stroke="currentColor"/><path stroke-linecap="round" stroke-linejoin="round" stroke-width="1.5" d="M20 11v8a2 2 0 0 1-2 2H6a2 2 0 0 1-2-2v-8" stroke="currentColor"/></symbol>
<symbol id="infos" fill="none" viewBox="0 0 25 26"><path stroke-linecap="round" stroke-linejoin="round" stroke-width="1.5" d="M12.71 12.583v5.75M12.71 7.994l.011-.013M12.71 24.368c6.278 0 11.368-5.09 11.368-11.368 0-6.279-5.09-11.368-11.369-11.368C6.431 1.632 1.341 6.722 1.341 13c0 6.279 5.09 11.368 11.368 11.368Z" stroke="currentColor"/></symbol>
<symbol id="logout" fill="none" viewBox="0 0 24 24"><path stroke-linecap="round" stroke-linejoin="round" stroke-width="1.5" d="M12 12h7m0 0-3 3m3-3-3-3M19 6V5a2 2 0 0 0-2-2H7a2 2 0 0 0-2 2v14a2 2 0 0 0 2 2h10a2 2 0 0 0 2-2v-1" stroke="currentColor"/></symbol>
<symbol id="misc" fill="none" viewBox="0 0 24 24"><path stroke-width="1.5" d="m5.212 15.111-2.687-2.687a.6.6 0 0 1 0-.848l2.687-2.687a.6.6 0 0 1 .848 0l2.687 2.687a.6.6 0 0 1 0 .848L6.06 15.111a.6.6 0 0 1-.848 0ZM11.576 21.475l-2.687-2.687a.6.6 0 0 1 0-.849l2.687-2.687a.6.6 0 0 1 .848 0l2.687 2.687a.6.6 0 0 1 0 .849l-2.687 2.687a.6.6 0 0 1-.848 0ZM11.576 8.748 8.889 6.06a.6.6 0 0 1 0-.848l2.687-2.687a.6.6 0 0 1 .848 0l2.687 2.687a.6.6 0 0 1 0 .848l-2.687 2.688a.6.6 0 0 1-.848 0ZM17.94 15.111l-2.687-2.687a.6.6 0 0 1 0-.848l2.687-2.687a.6.6 0 0 1 .848 0l2.687 2.687a.6.6 0 0 1 0 .848l-2.687 2.687a.6.6 0 0 1-.848 0Z" stroke="currentColor"/></symbol>
<symbol id="newsletter" fill="none" viewBox="0 0 24 24"><path stroke-linecap="round" stroke-linejoin="round" stroke-width="1.5" d="M6 6h12M6 10h12M13 14h5M13 18h5M2 21.4V2.6a.6.6 0 0 1 .6-.6h18.8a.6.6 0 0 1 .6.6v18.8a.6.6 0 0 1-.6.6H2.6a.6.6 0 0 1-.6-.6Z" stroke="currentColor"/><path stroke-linecap="round" stroke-linejoin="round" stroke-width="1.5" d="M6 18v-4h3v4H6Z" stroke="currentColor"/></symbol>
<symbol id="password" fill="none" viewBox="0 0 24 24"><path stroke-linecap="round" stroke-linejoin="round" stroke-width="1.5" d="M10 12a4 4 0 1 1-8 0 4 4 0 0 1 8 0Zm0 0h12v3M18 12v3" stroke="currentColor"/></symbol>
<symbol id="reset" fill="none" viewBox="0 0 24 24"><path stroke-linecap="round" stroke-linejoin="round" stroke-width="1.5" d="M21.168 8A10.003 10.003 0 0 0 12 2C6.815 2 2.55 5.947 2.05 11" stroke="currentColor"/><path stroke-linecap="round" stroke-linejoin="round" stroke-width="1.5" d="M17 8h4.4a.6.6 0 0 0 .6-.6V3M2.881 16c1.544 3.532 5.068 6 9.168 6 5.186 0 9.45-3.947 9.951-9" stroke="currentColor"/><path stroke-linecap="round" stroke-linejoin="round" stroke-width="1.5" d="M7.05 16h-4.4a.6.6 0 0 0-.6.6V21" stroke="currentColor"/></symbol>
<symbol id="rights" fill="none" viewBox="0 0 24 24"><path stroke-width="1.5" d="M11.607 2.342a.6.6 0 0 1 .787 0l1.948 1.692a.6.6 0 0 0 .445.145l2.572-.224a.6.6 0 0 1 .636.463l.582 2.514a.6.6 0 0 0 .275.38l2.212 1.33a.6.6 0 0 1 .243.748l-1.008 2.376a.6.6 0 0 0 0 .468l1.008 2.376a.6.6 0 0 1-.243.749l-2.212 1.33a.6.6 0 0 0-.275.379l-.582 2.514a.6.6 0 0 1-.636.463l-2.572-.224a.6.6 0 0 0-.445.144l-1.949 1.693a.6.6 0 0 1-.787 0l-1.948-1.693a.6.6 0 0 0-.445-.144l-2.572.224a.6.6 0 0 1-.636-.463l-.582-2.514a.6.6 0 0 0-.275-.38l-2.212-1.33a.6.6 0 0 1-.243-.748l1.008-2.376a.6.6 0 0 0 0-.468L2.693 9.39a.6.6 0 0 1 .243-.749l2.212-1.33a.6.6 0 0 0 .275-.379l.582-2.514a.6.6 0 0 1 .636-.463l2.572.224a.6.6 0 0 0 .445-.145l1.949-1.692Z" stroke="currentColor"/><path stroke-linecap="round" stroke-linejoin="round" stroke-width="1.5" d="m9 13 2 2 5-5" stroke="currentColor"/></symbol>
<symbol id="save" fill="none" viewBox="0 0 24 24"><path stroke-linecap="round" stroke-linejoin="round" stroke-width="1.5" d="M12 22v-9m0 0 3.5 3.5M12 13l-3.5 3.5M20 17.607c1.494-.585 3-1.918 3-4.607 0-4-3.333-5-5-5 0-2 0-6-6-6S6 6 6 8c-1.667 0-5 1-5 5 0 2.689 1.506 4.022 3 4.607" stroke="currentColor"/></symbol>
<symbol id="send" fill="none" viewBox="0 0 24 24"><path stroke-linecap="round" stroke-linejoin="round" stroke-width="1.5" d="m4.031 8.917 15.477-4.334a.5.5 0 0 1 .616.617l-4.333 15.476a.5.5 0 0 1-.94.067l-3.248-7.382a.5.5 0 0 0-.256-.257L3.965 9.856a.5.5 0 0 1 .066-.94Z" stroke="currentColor"/></symbol>
<symbol id="seo" fill="none" viewBox="0 0 24 24"><path stroke-linecap="round" stroke-linejoin="round" stroke-width="1.5" d="M9 6h11M5 18.01l.01-.011M5 12.01l.01-.011M3.8 5.8l.8.8 2-2M9 12h11M9 18h11" stroke="currentColor"/></symbol>
<symbol id="settings" fill="none" viewBox="0 0 24 24"><path stroke-linecap="round" stroke-linejoin="round" stroke-width="1.5" d="M12 15a3 3 0 1 0 0-6 3 3 0 0 0 0 6Z" stroke="currentColor"/><path stroke-linecap="round" stroke-linejoin="round" stroke-width="1.5" d="m19.622 10.395-1.097-2.65L20 6l-2-2-1.735 1.483-2.707-1.113L12.935 2h-1.954l-.632 2.401-2.645 1.115L6 4 4 6l1.453 1.789-1.08 2.657L2 11v2l2.401.655L5.516 16.3 4 18l2 2 1.791-1.46 2.606 1.072L11 22h2l.604-2.387 2.651-1.098C16.697 18.831 18 20 18 20l2-2-1.484-1.75 1.098-2.652 2.386-.62V11l-2.378-.605Z" stroke="currentColor"/></symbol>
<symbol id="show" fill="none" viewBox="0 0 24 24"><path stroke-linecap="round" stroke-linejoin="round" stroke-width="1.5" d="M3 13c3.6-8 14.4-8 18 0" stroke="currentColor"/><path stroke-linecap="round" stroke-linejoin="round" stroke-width="1.5" d="M12 17a3 3 0 1 1 0-6 3 3 0 0 1 0 6Z" stroke="currentColor"/></symbol>
<symbol id="start" fill="none" viewBox="0 0 24 24"><path stroke-linecap="round" stroke-linejoin="round" stroke-width="1.5" d="M16.061 10.404 14 17h-4l-2.061-6.596a6 6 0 0 1 .998-5.484l2.59-3.315a.6.6 0 0 1 .946 0l2.59 3.315a6 6 0 0 1 .998 5.484ZM10 20c0 2 2 3 2 3s2-1 2-3M8.5 12.5C5 15 7 19 7 19l3-2M15.932 12.5c3.5 2.5 1.5 6.5 1.5 6.5l-3-2" stroke="currentColor"/><path stroke-linecap="round" stroke-linejoin="round" stroke-width="1.5" d="M12 11a2 2 0 1 1 0-4 2 2 0 0 1 0 4Z" stroke="currentColor"/></symbol>
<symbol id="tab" fill="none" viewBox="0 0 24 24"><path stroke-linecap="round" stroke-linejoin="round" stroke-width="1.5" d="M22 8h-6.5M9 4v4h6.5m0 0V4" stroke="currentColor"/><path stroke-width="1.5" d="M2 17.714V6.286C2 5.023 2.995 4 4.222 4h15.556C21.005 4 22 5.023 22 6.286v11.428C22 18.977 21.005 20 19.778 20H4.222C2.995 20 2 18.977 2 17.714Z" stroke="currentColor"/></symbol>
<symbol id="tree" fill="none" viewBox="0 0 24 24"><path stroke-linecap="round" stroke-linejoin="round" stroke-width="1.5" d="M3 5h8M3 12h13M3 19h18" stroke="currentColor"/></symbol>
<symbol id="treeAdd" fill="none" viewBox="0 0 24 24"><path stroke-linecap="round" stroke-linejoin="round" stroke-width="1.5" d="M6 6H4M2 6h2m0 0v2m0-2V4M22 13h-8M22 7H10M22 19h-8" stroke="currentColor"/></symbol>
<symbol id="treeExpand" fill="none" viewBox="0 0 24 24"><path stroke-linecap="round" stroke-linejoin="round" stroke-width="1.5" d="M9 10h9M12 15h9M14 20h9M4 5h11M4 10v10m0 0-3-3m3 3 3-3" stroke="currentColor"/></symbol>
<symbol id="treeReduce" fill="none" viewBox="0 0 24 24"><path stroke-linecap="round" stroke-linejoin="round" stroke-width="1.5" d="M9 10h9M12 15h9M14 20h9M4 5h11M4 20V10m0 0-3 3m3-3 3 3" stroke="currentColor"/></symbol>
<symbol id="user" fill="none" viewBox="0 0 24 24"><path stroke-linecap="round" stroke-linejoin="round" stroke-width="1.5" d="M5 20v-1a7 7 0 0 1 7-7v0a7 7 0 0 1 7 7v1M12 12a4 4 0 1 0 0-8 4 4 0 0 0 0 8Z" stroke="currentColor"/></symbol>
<symbol id="valid" fill="none" viewBox="0 0 24 24"><path stroke-linecap="round" stroke-linejoin="round" stroke-width="1.5" d="m7 12.5 3 3 7-7" stroke="currentColor"/><path stroke-linecap="round" stroke-linejoin="round" stroke-width="1.5" d="M12 22c5.523 0 10-4.477 10-10S17.523 2 12 2 2 6.477 2 12s4.477 10 10 10Z" stroke="currentColor"/></symbol>
</svg>
